<svg xmlns="http://www.w3.org/2000/svg" version="1.1" width="600px" height="600px" viewBox="0 0 200 200" style="overflow:hidden!important;"><g id="svga-group-wrapper"><g id="svga-group-backs-single"><path id="SvgjsPath13007" d="M0 0h200v200H0V0z" fill="#c5e0dc" stroke-width="none" opacity="1" stroke="none"></path><path id="SvgjsPath13008" d="M0 70.8 39.2 200l39.2-86.3L0 9.9v60.9zM200 0h-47.6l23 37.5L200 0zm-28.9 104.9 16.5-40.7-70.5-26.8 54 67.5zM51.3 200h101.1v-33.1l-73.9 19.5L51.3 200zm27.2-86.3 73.9 53.2L78.5 0v113.7z" fill="#a3d1ca" stroke-width="none" opacity="1" stroke="none"></path><path id="SvgjsPath13009" d="m134.4 0 2 130.8L176.2 0h-41.8zm18 166.9 47.6-14.5v-21.5L171.1 105l-18.7 61.9zm22.9-129.4 12.3 26.8 12.4 6.9V0l-24.7 37.5zm-58.2 0L96.7 26.6 117.1 0 81 18.3 46.7 0h-28l56.2 21.4L0 59.3v93.1L94.8 29l22.3 8.5zM0 200h94.2l42.2-69.2L0 189.1V200z" fill="#83c1b8" stroke-width="none" opacity="1" stroke="none"></path><path id="SvgjsPath13010" d="M104.4 70.8 91.1 13.5 166.2 0 90 8.6 88 0H68.2l3.5 10.6L0 18.7v11.1l73.7-13.2 19.5 59-65.3 28L0 70.8v5.4l24 29.2-24 10.2 24.5-9.6 57.4 69.8L51.3 200h27.2l11.1-14.9 12.3 14.9h7.9l-16.7-19.6 24.1-32.4 17.2 52.1-29.2-125.6 94.8-37v-7.6l-95.6 40.9zm12.7 77.1-30.9 24.4-57.7-67.9 65.7-25.7 22.9 69.2zm70.5 52.1H200l-47.6-95.1 35.2 95.1z" fill="#ffffff" stroke-width="none" opacity="1"></path></g><g id="svga-group-humanwrap-move" transform="matrix(1,0,0,1,0,-6)"><g id="svga-group-humanwrap" transform="matrix(0.8999996000000001,0,0,0.8999996000000001,10.000038283379354,12.816551357553081)"><g id="svga-group-hair-back-move" transform="matrix(1,2.856368900253737e-18,-2.856368900253737e-18,1,0,0)"><g id="svga-group-hair-back"></g></g><g id="svga-group-humanbody-back"><path id="SvgjsPath12370" d="m170 180.3-27.3-6.9-18-9.9-1.5-28.2H76.8l-1.5 28.2-18 9.9-27.3 6.9-9.1 19.7-3 20h164.2l-3-20z" fill="#f0c7b1" stroke-width="none" opacity="1" stroke="none"></path><path id="SvgjsPath12371" d="m76.8 135.3-1.5 28.2-18 9.9-27.3 6.9-9.1 19.7-3 20h14.6v-20l2.7-17.7 23.8-6.4 24.7-8.3 3.5-32.3z" fill="#d19271" stroke-width="none" opacity="1" stroke="none"></path></g><g id="svga-group-chinshadow-single"><path id="SvgjsPath12366" d="m112.9 157.7 10.7-14.9-.4-7.5H76.8l-.8 14.8 5.5 7.6 6.2 3.5h19z" fill="#c27b55" stroke-width="none" opacity="1" stroke="none"></path></g><g id="svga-group-humanbody-front"><path id="SvgjsPath12372" d="m92.8 168.3 2 7.9 6.9 4.6s-8.5-3-8.7-3.6c-.2-.6-.2-8.9-.2-8.9z" fill="#d19271" stroke-width="none" opacity="1" stroke="none"></path></g><g id="svga-group-clothes-single"><path id="SvgjsPath12249" d="m184.7 220-8.1-35.4-4.8-3.5-1.5-2-17.6-6.8-8.6-15.9-3.8-1.6-7.3-9-9.4-3.1.6 11-1.3 10.1-8.9 9.1-8.1 9.8-2.5 5-1.7-3.2-4.5-3.8-11.2-7.8-8.9-9.1-1.3-10.1.6-11-9.4 3.1-7.3 9-3.8 1.6-8.6 15.9-17.6 6.8-1.5 2-4.8 3.5-8.1 35.4z" fill="#1a2d60" stroke-width="none" opacity="1" stroke="none"></path><path id="SvgjsPath12250" d="m134.2 188.8-15 3.8-9.9.2-.1-1.7 1.3-.1-.7-2.3-3.2.3-.1 2.3.8-.1v1.6h-2.1l2.1.2.1 5.9-.7 7.4 1.6 7.5.3 4.8 2.6-1-.3-5.1-2-6.6.9-7.3-.3-5.6 9.7.7 15.8-4.1 16-12.2 2-5.3-3.2 4.1-15.6 12.6zm-32.2 4.3-2.5-.2.2-1.8.6.1 1.2-2.2-3.3-2.3-2 1.9 1.2 2.3h.1v1.9l-1.5-.1-26-6.9-15.8-11 1.9-11L59 160l11 18.7 17.7 7.2-14.8-7.9-8.1-12.4 2.2-19.8-7.2 8.9-3.8 1.7-8.6 15.8-17.7 6.8-1.5 2-4.8 3.5-8.1 35.5h10.2l1.3-14.3 3.3-18.1 2.9 2.6 2.6 13.9 1.2 15.9v-16.2l-2.6-15.3-2.2-4.3 1.4-1.7 16.7-6L69 187.3l26.8 6.2 1.5-.1-.1 3.4 1.4 9.9s-3 9.8-2.8 9.9c.3.2 1.7 2.8 1.8 2.6.1-.3 3.5-12.5 3.5-12.5l-1.9-10.4.3-3.1 2.5-.1zm-26.2-39.4.6-10.8-4 5.1-.7 8.4 5.4 7.5-1.3-10.2zm49.1 11 6.7-6.9-.7-10.8-7.3-4.3.6 11-1.3 10.2-8.9 9.1-8.1 9.8-2.5 5 6.5-8.5 15-14.6zm-18.1 22.4 22.9-5 11.2-13.4 3.2-12.3-3.8-1.7-2.4 13-8.6 13.1-22.5 6.3zm56.5 9.7.8 21.6.5-20.4 4.5-13.1-5.8 11.9z" fill="#0e2051" stroke-width="none" opacity="1" stroke="none"></path><path id="SvgjsPath12251" d="m137.4 165.7 1.2-10.5-6-6.2 1.4 10.3-10.3 16.1-14 8.7 18.6-4.5 9.1-13.9zm13.6 6.2-6.2-10.1c.2.6-2.1 9.5-2.1 9.5l-10.3 12.4-15.5 7.2 16.7-3.1 15.7-12.6 1.7-3.3zm24.8 14-3.7-1.9-2.3 5.6 3.9 9.3 3.9 19.2 4.1.2-5.9-32.4zm-7.7-6.5-14.4-4.8-2.5 5-8.3 5.6 19.4.6 4.5 1.2 3.7-5.6-2.4-2zM85 175.6l-10.1-10.3-3.7-7.4-1.4.6 3.1 11.6 11.6 9.1 14.4 5.6 3.1 3.9-3.3-5.6-13.7-7.5zm43.1-12.5-16.7 16.1-6.6 8.5 13.4-11.6 9.9-13z" fill="#293c6f" stroke-width="none" opacity="1" stroke="none"></path></g><g id="svga-group-head" transform="matrix(1,2.856368900253737e-18,-2.856368900253737e-18,1,0,0)"><g id="svga-group-ears-left-move" transform="matrix(1,0,0,1,0,0)"><g id="svga-group-ears-left"><path id="SvgjsPath12264" d="M64.4 96.3s-7.6-6.9-9.2-8c0 0-3.7 1-6.6 2l2.7 9.3 2.9 8.6 1.4 11.5 4.2-.3 5.9-10-1.3-13.1z" fill="#f0c7b1" stroke-width="none" opacity="1" stroke="none"></path><path id="SvgjsPath12265" d="M50.4 91.2 55 93l4.4 9.4-.5 8.9-3.4-5.6-.2-4.9s1.2-1.1 1.1-1.5-1.9-5.2-1.9-5.2l-3.7-2s1.3 5.7 1.1 5.4c-.1-.3-2.2-6.2-2.2-6.2l.7-.1z" fill="#d19271" stroke-width="none" opacity="1" stroke="none"></path><path id="SvgjsPath12266" d="M52.66 89.03c1.5-.4 2.54-.73 2.54-.73 1.6 1.1 9.2 8 9.2 8l1.3 13.1-5.9 10-4.2.3 4.3-2.9 2.3-15.7-5.9-10.3-3.64-1.77z" fill="#e1ac8f" stroke-width="none" opacity="1" stroke="none"></path></g></g><g id="svga-group-ears-right-move" transform="matrix(1,0,0,1,0,0)"><g id="svga-group-ears-right"><path id="SvgjsPath12267" d="M135.6 96.3s7.6-6.9 9.2-8c0 0 3.7 1 6.6 2l-2.7 9.3-2.9 8.6-1.4 11.5-4.2-.3-5.9-10 1.3-13.1z" fill="#f0c7b1" stroke-width="none" opacity="1" stroke="none"></path><path id="SvgjsPath12268" d="M149.6 91.2 145 93l-4.4 9.4.5 8.9 3.4-5.6.2-4.9s-1.2-1.1-1.1-1.5c.1-.3 1.9-5.2 1.9-5.2l3.7-2s-1.3 5.7-1.1 5.4c.1-.3 2.2-6.2 2.2-6.2l-.7-.1z" fill="#d19271" stroke-width="none" opacity="1" stroke="none"></path><path id="SvgjsPath12269" d="M147.32 89.04c-1.5-.4-2.53-.78-2.53-.78-1.6 1.1-9.2 8.03-9.2 8.03l-1.3 13.1 5.9 10 4.2.3-4.3-2.9-2.3-15.7 5.9-10.3 3.63-1.75z" fill="#e1ac8f" stroke-width="none" opacity="1" stroke="none"></path></g></g><g id="svga-group-faceshape-wrap"><g id="svga-group-faceshape-single"><path id="SvgjsPath12352" d="M138.1 60c-6.9-11.6-19.7-19.5-19.7-19.5-7.2-1.5-18.4-2.3-18.4-2.3s-11.1.8-18.4 2.3c0 0-12.8 7.9-19.7 19.5 0 0-5.1 14.5-5.3 24.8l1 29.9 26.7 37.4 6.2 3.5h19l6.2-3.5 26.7-37.4 1-29.9c-.2-10.3-5.3-24.8-5.3-24.8z" fill="#f0c7b1" stroke-width="none" opacity="1" stroke="none"></path><path id="SvgjsPath12353" d="m91 153.7-4.9-5.3-22-36.1-1.3-25.6 3.3-23.3L82.5 44l17.4-3.6 18.5.1c-7.2-1.5-18.4-2.3-18.4-2.3s-11.1.8-18.4 2.3c0 0-12.8 7.9-19.7 19.5 0 0-5.1 14.5-5.3 24.8l1 29.9 26.7 37.4 6.2 3.5h19l6.2-3.5-8.6 1.5-16.1.1z" fill="#d19271" stroke-width="none" opacity="1" stroke="none"></path></g></g><g id="svga-group-mouth-single-move" transform="matrix(1,0,0,1,0,1)"><g id="svga-group-mouth-single"><path id="SvgjsPath12462" d="M91.08 134.62c.5.2 5.63 2.38 5.63 2.38l8.04-.11 5.45-3.38-5.19 4.39-8.7.1-5.23-3.38z" fill="#d19271" stroke-width="none" opacity="1" transform="translate(0 2)" stroke="none"></path><path id="SvgjsPath12463" d="m87.35 126.06 12.66 4.04 14.15-4.56-11.35-1.84-3 1.8-2.9-1.7z" fill="#da7c87" stroke-width="none" opacity="1" transform="translate(0 2)" stroke="none"></path><path id="SvgjsPath12464" d="M85.61 125.4c.2 0 14.4 3.9 14.4 3.9l15.5-4.2-15.4 6-14.5-5.7z" fill="#cb5f6c" stroke-width="none" opacity="1" transform="translate(0 2)" stroke="none"></path></g></g><g id="svga-group-eyes-left-move" transform="matrix(1,0,0,1,1,0)"><g id="svga-group-eyes-left"><g id="svga-group-eyesback-left"><path id="SvgjsPath12306" d="M92.4 99.4 87.5 92s-7.4-.2-12.3-.1l-6.4 7.4 6.6.8 17-.7z" fill="#ffffff" stroke-width="none" opacity="1"></path></g><g id="svga-group-eyesiriswrapper-left" transform="matrix(1,0,0,1,0,0)"><g id="svga-group-eyesiriscontrol-left" transform="matrix(1,0,0,1,0,1)"><g id="svga-group-eyesiris-left" transform="matrix(0.9499998000000001,0,0,0.9499998000000001,4.050016390735621,4.725019090735614)"><path id="SvgjsPath12387" d="m77 97.9-1.3-3.8 1.9-3.7 3.9-1.2 3.6 1.9 1.2 3.8-1.8 3.6-3.9 1.3z" fill="#681711" stroke-width="none" opacity="1"></path><path id="SvgjsPath12388" d="m81.5 89.5 3.4 1.8 1.2 3.7-1.8 3.4-3.7 1.2-3.4-1.8-1.2-3.7 1.8-3.4 3.7-1.2m0-.6-4.1 1.3-2 3.8 1.3 4.1 3.8 2 4.1-1.3 2-3.8-1.3-4.1-3.8-2z" fill="#490500" stroke-width="none" opacity="1"></path><path id="SvgjsPath12389" d="m82.2 91.6-2.4.1-1.6 1.7v2.3l1.7 1.6h2.4l1.6-1.7v-2.3z" fill="#000000" stroke-width="none" opacity="1"></path><path id="SvgjsPath12390" d="m77.9 91.2.9 1.1-1.2-.7.3-.4zm2.1-1v1.3l-.6-1.1.6-.2zm1.7-.2-.3 1.3-.3-1.3h.6zm1.7.9-.7.8.2-1.1.5.3zm1.5 1-1.3.8 1-1.2.3.4zm.6 1.9-1.4.1 1.2-.6.2.5zm.1 1.5-1.2-.4 1.3-.1-.1.5zm-.9 1.4-.8-.7 1.1.3-.3.4zm-.8 1.5-.7-1.3 1.1.9-.4.4zm-1.8.6-.1-1.4.6 1.2-.5.2zm-1.8.1.5-1.2.1 1.3-.6-.1zm-2-1.1.9-.9-.4 1.2-.5-.3zM77 96.2l1.1-.3-.8.8-.3-.5zm-.4-1.7 1.3.3-1.3.2v-.5zm.5-1.9.8.7-1.1-.2.3-.5z" fill="#320300" stroke-width="none" opacity="1"></path><path id="SvgjsPath12391" d="m78 92 2.2 2 .6-.4-1.3-2.7z" fill="#ffffff" stroke-width="none" opacity="1"></path><path id="SvgjsPath12392" d="m82.1 96.6.5 1 .9-.4-.5-1z" fill="#ffffff" stroke-width="none" opacity="1"></path></g></g></g><g id="svga-group-eyesfront-left"><path id="SvgjsPath12314" d="M67.1 89.3v11.9l7.9 8.4h11.2l7.9-8.4V89.3l-7.9-8.4H75l-7.9 8.4zm1.7 10.1 6.4-7.4c4.9-.1 12.3.1 12.3.1l4.9 7.4-17 .8-6.6-.9z" fill="#f0c7b1" stroke-width="none" opacity="1" stroke="none"></path><path id="SvgjsPath12315" d="m93.1 100.6-5.9-8.3H75.3l-7.52 8.33 7.32-9.23h12.8z" fill="#000000" stroke-width="none" opacity="1" stroke="none"></path><path id="SvgjsPath12316" d="m92.3 97.1-4.6-8.6-12.9.2-7 9.5 7.5-9.1 12.1-.1z" fill="#e1ac8f" stroke-width="none" opacity="1" stroke="none"></path></g></g></g><g id="svga-group-eyes-right-move" transform="matrix(1,0,0,1,-1,0)"><g id="svga-group-eyes-right"><g id="svga-group-eyesback-right"><path id="SvgjsPath12307" d="m107.6 99.4 4.9-7.4s7.4-.2 12.3-.1l6.4 7.4-6.6.8-17-.7z" fill="#ffffff" stroke-width="none" opacity="1"></path></g><g id="svga-group-eyesiriswrapper-right" transform="matrix(1,0,0,1,0,0)"><g id="svga-group-eyesiriscontrol-right" transform="matrix(1,0,0,1,0,1)"><g id="svga-group-eyesiris-right" transform="matrix(0.9499998000000001,0,0,0.9499998000000001,5.945024047029875,4.725019090735614)"><path id="SvgjsPath12393" d="m114.9 97.9-1.2-3.8 1.8-3.7 3.9-1.2 3.6 1.9 1.3 3.8-1.9 3.6-3.9 1.3z" fill="#681711" stroke-width="none" opacity="1"></path><path id="SvgjsPath12394" d="m119.4 89.5 3.4 1.8L124 95l-1.8 3.4-3.7 1.2-3.4-1.8-1.2-3.7 1.8-3.4 3.7-1.2m0-.6-4.1 1.3-2 3.8 1.3 4.1 3.8 2 4.1-1.3 2-3.8-1.3-4.1-3.8-2z" fill="#490500" stroke-width="none" opacity="1"></path><path id="SvgjsPath12395" d="m120.1 91.6-2.4.1-1.6 1.7v2.3l1.7 1.6h2.4l1.6-1.7v-2.3z" fill="#000000" stroke-width="none" opacity="1"></path><path id="SvgjsPath12396" d="m115.9 91.2.8 1.1-1.2-.7.4-.4zm2-1v1.3l-.5-1.1.5-.2zm1.7-.2-.3 1.3-.3-1.3h.6zm1.7.9-.7.8.3-1.1.4.3zm1.5 1-1.3.8 1-1.2.3.4zm.6 1.9-1.3.1 1.1-.6.2.5zm.1 1.5-1.2-.4 1.3-.1-.1.5zm-.9 1.4-.8-.7 1.1.3-.3.4zm-.8 1.5-.7-1.3 1.1.9-.4.4zm-1.8.6-.1-1.4.6 1.2-.5.2zm-1.8.1.5-1.2.1 1.3-.6-.1zm-2-1.1.9-.9-.4 1.2-.5-.3zm-1.2-1.6 1-.3-.8.8-.2-.5zm-.5-1.7 1.3.3-1.3.2v-.5zm.5-1.9.8.7-1-.2.2-.5z" fill="#320300" stroke-width="none" opacity="1"></path><path id="SvgjsPath12397" d="m115.9 92 2.2 2 .6-.4-1.3-2.7z" fill="#ffffff" stroke-width="none" opacity="1"></path><path id="SvgjsPath12398" d="m120 96.6.5 1 .9-.4-.5-1z" fill="#ffffff" stroke-width="none" opacity="1"></path></g></g></g><g id="svga-group-eyesfront-right"><path id="SvgjsPath12317" d="M125 80.8h-11.2l-7.9 8.4v11.9l7.9 8.4H125l7.9-8.4V89.3l-7.9-8.5zm-.5 19.4-17-.8 4.9-7.4s7.4-.2 12.3-.1l6.4 7.4-6.6.9z" fill="#f0c7b1" stroke-width="none" opacity="1" stroke="none"></path><path id="SvgjsPath12320" d="m106.78 100.49 6.02-8.19h11.9l7.62 8.43-7.42-9.33h-12.8z" fill="#000000" stroke-width="none" opacity="1" stroke="none"></path><path id="SvgjsPath12321" d="m107.7 97.1 4.6-8.6 12.9.2 7 9.5-7.5-9.1-12.1-.1z" fill="#e1ac8f" stroke-width="none" opacity="1" stroke="none"></path></g></g></g><g id="svga-group-facehighlight-single"></g><g id="svga-group-eyebrows-left-move" transform="matrix(1,0,0,1,0,0)"><g id="svga-group-eyebrows-left-rotate" transform="matrix(1,1.7453292519943295e-9,-1.7453292519943295e-9,1,1.452114020139561e-7,-1.379682856850195e-7)"><g id="svga-group-eyebrows-left"><path id="SvgjsPath12229" d="m88.9 77.9-5.5-.1-8.2 1.3-5.6 3.4-5.3 6.1L67 86l3.3-2.9 7.8-2 8.1 2.7 6.7-1.1.9-4.8z" fill="#543c32" stroke-width="none" opacity="1"></path><path id="SvgjsPath12230" d="m92.9 82.7.9-4.7-2 3.8-5.1 1.4 1.6-3-2.7 2.8-7.6-2.5 2.5-1.4-4.3.6-6 3.4 7.8-2 8.1 2.8 6.8-1.2zM67 86l3.3-2.9-.7-.6-5.2 6L67 86z" fill="#452c22" stroke-width="none" opacity="1"></path></g></g></g><g id="svga-group-eyebrows-right-move" transform="matrix(1,0,0,1,0,0)"><g id="svga-group-eyebrows-right-rotate" transform="matrix(1,1.7453292519943295e-9,-1.7453292519943295e-9,1,1.452114020139561e-7,-2.1109757142312446e-7)"><g id="svga-group-eyebrows-right"><path id="SvgjsPath12231" d="m106.2 77.9.9 4.8 6.7 1.1 8.1-2.7 7.8 2L133 86l2.7 2.6-5.3-6.1-5.6-3.4-8.2-1.3-5.5.1z" fill="#543c32" stroke-width="none" opacity="1"></path><path id="SvgjsPath12232" d="m113.8 83.8 8.1-2.8 7.8 2-5.9-3.4-4.3-.6 2.5 1.4-7.6 2.4-2.7-2.8 1.6 3-5.1-1.4-2-3.8.9 4.7 6.7 1.3zm21.9 4.8-5.2-6-.7.6L133 86l2.7 2.6z" fill="#452c22" stroke-width="none" opacity="1"></path></g></g></g><g id="svga-group-beardwrap"><g id="svga-group-beard-single-move" transform="matrix(1,0,0,1,0.5,-1)"><g id="svga-group-beard-single" transform="matrix(0.8499994000000002,0,0,0.8499994000000002,15.000062288827493,20.025078383379338)"><path id="SvgjsPath12219" d="m138.9 99.3-3.6 12.8L129 126l-3.5.6-2.2-4.8-3.7-2.2-9.7-.6-8.9 1.5h-2l-9-1.5-9.7.6-3.7 2.2-2.2 4.8-3.4-.6-6.2-13.9-3.7-12.8-2.3-.3-3.1 37.1 9.7 15 12.8 12.2 13.3 4.9h17.1l13.3-4.9 12.8-12.2 9.7-15 .9-17.1-4-20-2.4.3zm-21.8 38.4-9.2 7.5-5.1 1.5h-5.6l-5.1-1.5-9.2-7.5-.4-9.8 1.9-1.3 10-1h11.2l10 1 1.9 1.3-.4 9.8z" fill="#3b3128" stroke-width="none" opacity="1"></path><path id="SvgjsPath12220" d="M74.3 142.7c.1 1.4 3.6 14.7 3.6 14.7l-1.2.1-1.4.4-2.6-4.6-1.6.5-3.1-6.1-1.2.9-2.6-12-1.7.4-1.3-19.9-.2-17.8-2.2-.3-4.1 18.2 1 18.9 9.7 15 12.8 12.2 13.3 4.9h17.1l13.3-4.9 12.8-12.2-6.9 4.9-6.2 5.2-.7-.9-8.1 4.2-.4-1.6-4.9 1.9-6.8-.8-1.2.8-6-2.2-2.1.9-5.3-3.8-3.8-.3-3.1-8.6.1-1.7-1.9 1v-9.5l-1.7.9.9-11.4-1.3.8.9-4.6.4 1.4 2.7-5.3 11.1-1.6s9.1 1.8 9.5 1.8 10.1-3.7 10.1-3.7l-8.9 1.5H99l-9-1.4-9.7.6-3.7 2.2-2.2 4.8s-.2 14.6-.1 16.1zm33.2-18.1-7-.6-7.2.8h-10l-2.5 2.1 1.8 5.1-.2-4.1 1.9-1.3 10-1h11.2l10 1 1.9 1.3-.4 9.8-9.2 7.6-5.1 1.5h-5.6l-5.1-1.5 1.4 1.6 2.2.4 3.4 1.4 1.6-.5 2.7.9 3-2.1 2.1 1.3 1.6-2.7 8.6-7.1 1.2-11.1-1-2.5-11.3-.3zm21.3 5.1s.4-2.9.2-3.7l-1.5.2 1.3 3.5zm6.4-17.6-5.1 11.3c.8-1.4 1.8-2.8 1.8-2.8l3.4-6.8 2.9-9 3.1-6-2.4.4-3.7 12.9zm-11 48.9 1.5-4.4-1.7 1.4 2.1-7.2-1 1.3 1.3-7.6-.4-2.3-.3-13.9-.4 3-.5-1.3-.1 14.7-.9-1.2-1 6.8-1.7 7.1-.8-.4-5.9 7.1 1.9 1.1 5.6-2.1 2.3-2.1z" fill="#2c2219" stroke-width="none" opacity="1"></path></g></g></g><g id="svga-group-mustache-single-move" transform="matrix(1,0,0,1,0,0)"><g id="svga-group-mustache-single"></g></g><g id="svga-group-nose-single-move" transform="matrix(1,0,0,1,0,0)"><g id="svga-group-nose-single" transform="matrix(0.9499997000000001,0,0,0.9499997000000001,5.003084637163155,5.38678254175376)"><path id="SvgjsPath12440" d="m108.74 116.21-4.95 1.23-1.77 2.5-2.13.32-2-.49-1.68-2.33-4.88-1.27-.08-3.53 2.5-2.9 2.09-1.64h9.17l3.9 4.59z" fill="#f0c7b1" stroke-width="none" opacity="1" transform="translate(0 1)" stroke="none"></path><path id="SvgjsPath12441" d="m97.78 92.85-2.11 5.62.92 5.82-1.39 4.5h2.91l2.05-1.39-2.51.59-1.19-.2 1.06-4.03-1.19-5.62 1.65-4.36z" fill="#d19271" stroke-width="none" opacity="1" transform="translate(0 1)" stroke="none"></path><path id="SvgjsPath12442" d="m109.23 112.62-3.16-3.57.26.99 2.17 2.64-.26 3.24-2.96.86.26-.73 1.91-.73.2-.53-2.63.26-3.1 4.36-1.91.33-1.81-.33-3.1-4.36-2.63-.26.2.53 1.91.73.26.73-2.96-.86-.26-3.24 2.17-2.64.26-.99-3.16 3.57s-.2 3.9.07 3.9c.26 0 5.2 1.26 5.2 1.26l1.78 2.58 2.08.26 2.17-.26 1.78-2.58s4.94-1.26 5.2-1.26c.26 0 .06-3.9.06-3.9z" fill="#d19271" stroke-width="none" opacity="1" transform="translate(0 1)" stroke="none"></path><path id="SvgjsPath12443" d="m102.33 93 2.09 5.28-.88 3.46.14-4z" fill="#d19271" stroke-width="none" opacity="1" transform="translate(0 1)" stroke="none"></path><path id="SvgjsPath12444" d="M97.03 109.7h7.08l3.17 3.05-4.64-.12-1.83 2.2-3.78-5.13z" fill="#f8d5c3" stroke-width="none" opacity="1" transform="translate(0 1)" stroke="none"></path></g></g><g id="svga-group-hair-front"><path id="SvgjsPath12486" d="M143.01 63.98c-2.54-5.83-19.15-23.84-19.15-23.84L100 36.33l-23.86 3.8s-16.61 18-19.15 23.84l-.93 24.3 4.58 4.03h2.56l.73-24.9 17.21-16.84 7.32 8.24L100 60.55l11.54-1.75 7.32-8.24 17.21 16.84.73 24.9h2.56l4.58-4.03-.93-24.29z" fill="#452c22" stroke-width="none" opacity="1" stroke="none"></path><path id="SvgjsPath12487" d="M123.86 40.14 100 36.33l-9.09 1.45-11.22 4.57s8.72 13.88 9.72 13.88c.99 0 12.49 1.78 13.48 1.59.99-.2 8.33-.99 8.33-.99l8.33-7.53 18.04 18.24.92 24.77h.86l4.58-4.03-.93-24.3c-2.55-5.84-19.16-23.84-19.16-23.84z" fill="#543c32" stroke-width="none" opacity="1" stroke="none"></path></g><g id="svga-group-glasses-single-move" transform="matrix(1,0,0,1,0,0)"><g id="svga-group-glasses-single"></g></g></g></g></g><rect id="svga-credit-rect" width="200" height="15" x="0" y="185" fill="#ecf0f1" opacity="0.5" style="display: none;"></rect><text id="svga-credit-text" font-family="Avenir Next, Roboto, Helvetica, Arial, sans-serif" font-size="10px" text-anchor="start" font-weight="400" size="10px" anchor="start" weight="400" fill="#333333" x="33.40313720703125" y="182.60824728012085" style="display: none;"><tspan id="SvgjsTspan12218" dy="13" x="33.40313720703125">Created on AvatarMaker.com</tspan></text></g><defs id="SvgjsDefs12165"></defs></svg>