<svg width="250" height="250" viewBox="0 0 250 250" fill="none" xmlns="http://www.w3.org/2000/svg">
<path d="M4.77619 114.391L114.465 4.79265C120.145 -0.882842 129.359 -0.928325 135.084 4.64338C135.085 4.64413 135.086 4.64489 135.087 4.64564L181.068 50.5891C186.153 55.6707 186.153 63.9095 181.068 68.991C175.982 74.0729 167.735 74.0729 162.649 68.991L127.784 34.1544C126.121 32.4928 123.577 32.4928 121.914 34.1544L34.32 121.677C32.6567 123.338 32.6567 125.881 34.32 127.543L121.914 215.065C123.577 216.727 126.121 216.727 127.784 215.065L162.649 180.228C167.735 175.147 175.982 175.147 181.068 180.228C186.153 185.31 186.153 193.549 181.068 198.63L135.077 244.583C129.375 250.281 120.167 250.281 114.465 244.583L4.77619 134.985C-0.925397 129.288 -0.925397 120.088 4.77619 114.391Z" fill="url(#paint0_linear_15_710)" stroke="black"/>
<path d="M121.941 34.1294L121.927 34.1414L121.914 34.1544L34.32 121.677C32.6567 123.338 32.6567 125.881 34.32 127.543L121.914 215.065C123.577 216.727 126.121 216.727 127.784 215.065L162.649 180.228C167.735 175.147 175.982 175.147 181.068 180.228C186.153 185.31 186.153 193.549 181.068 198.63L135.077 244.583C129.375 250.281 120.167 250.281 114.465 244.583L4.77619 134.985C-0.925397 129.288 -0.925397 120.088 4.77619 114.391L114.465 4.79265C120.145 -0.882904 129.359 -0.928278 135.084 4.64361C144.85 14.3964 152.378 21.9155 157.669 27.201C151.622 23.5086 145.913 22.0776 140.558 22.9904C132.815 24.3101 127.208 29.3839 123.508 32.7318C122.941 33.2447 122.419 33.7172 121.941 34.1294Z" fill="url(#paint1_linear_15_710)" stroke="black"/>
<path d="M192.391 169.328C197.477 174.41 205.724 174.41 210.81 169.328L244.735 135.431C250.436 129.734 250.436 120.535 244.736 114.838C244.736 114.838 244.736 114.838 244.735 114.838M192.391 169.328L245.089 114.484M192.391 169.328C187.306 164.247 187.306 156.008 192.391 150.926L215.191 128.145C216.854 126.484 216.854 123.941 215.191 122.279L192.078 99.1852C186.992 94.1036 186.992 85.8649 192.078 80.7833C197.167 75.6981 205.417 75.6908 210.515 80.7669L244.735 114.838M192.391 169.328L244.735 114.838M244.735 114.838L245.089 114.484M245.089 114.484L210.868 80.4126C205.574 75.142 197.009 75.1496 191.725 80.4296C186.443 85.7065 186.443 94.262 191.725 99.5389L214.838 122.633C216.305 124.099 216.305 126.325 214.838 127.792L192.038 150.573C186.757 155.849 186.757 164.405 192.038 169.682C197.319 174.959 205.882 174.959 211.163 169.682L245.088 135.785C250.985 129.892 250.985 120.376 245.089 114.484Z" fill="url(#paint2_linear_15_710)" stroke="black"/>
<path d="M154.435 125.236C154.435 141.303 141.4 154.328 125.319 154.328C109.238 154.328 96.2031 141.303 96.2031 125.236C96.2031 109.17 109.238 96.1445 125.319 96.1445C141.4 96.1445 154.435 109.17 154.435 125.236Z" fill="url(#paint3_linear_15_710)" stroke="black"/>
<defs>
<linearGradient id="paint0_linear_15_710" x1="115.127" y1="6.66793e-06" x2="219.363" y2="63.6553" gradientUnits="userSpaceOnUse">
<stop stop-color="#0085FF"/>
<stop offset="1" stop-color="#2EC7FF"/>
</linearGradient>
<linearGradient id="paint1_linear_15_710" x1="129.108" y1="-1.74117e-06" x2="77.6246" y2="266.078" gradientUnits="userSpaceOnUse">
<stop stop-color="#29CDFF"/>
<stop offset="0.378601" stop-color="#148EFF"/>
<stop offset="1" stop-color="#0085FF"/>
</linearGradient>
<linearGradient id="paint2_linear_15_710" x1="230.796" y1="63.8568" x2="163.809" y2="168.62" gradientUnits="userSpaceOnUse">
<stop stop-color="#FFD093"/>
<stop offset="0.414726" stop-color="#F2AE54"/>
<stop offset="1" stop-color="#EB8F17"/>
</linearGradient>
<linearGradient id="paint3_linear_15_710" x1="136.057" y1="74.5217" x2="113.768" y2="163.68" gradientUnits="userSpaceOnUse">
<stop stop-color="#F5C98F"/>
<stop offset="0.512635" stop-color="#F9AF4F"/>
<stop offset="1" stop-color="#EF951F"/>
</linearGradient>
</defs>
</svg>
