<svg width="250" height="250" viewBox="0 0 250 250" fill="none" xmlns="http://www.w3.org/2000/svg">
<path d="M248.5 38.0435V58.2827H1.5V38.0435C1.5 26.866 10.5614 17.8042 21.7393 17.8042H228.261C239.438 17.8042 248.5 26.866 248.5 38.0435Z" fill="#A5A5A5" stroke="black" stroke-width="3"/>
<path d="M194.293 32.3369V32.8804C194.293 35.1313 192.468 36.9565 190.217 36.9565C187.966 36.9565 186.141 35.1313 186.141 32.8804V32.3369C186.141 30.0859 187.966 28.2607 190.217 28.2607C192.468 28.2607 194.293 30.0859 194.293 32.3369ZM206.522 28.2607C204.271 28.2607 202.446 30.0859 202.446 32.3369V32.8804C202.446 35.1313 204.271 36.9565 206.522 36.9565C208.773 36.9565 210.598 35.1313 210.598 32.8804V32.3369C210.598 30.0859 208.773 28.2607 206.522 28.2607ZM222.826 28.2607C220.575 28.2607 218.75 30.0859 218.75 32.3369V32.8804C218.75 35.1313 220.575 36.9565 222.826 36.9565C225.077 36.9565 226.902 35.1313 226.902 32.8804V32.3369C226.902 30.0859 225.077 28.2607 222.826 28.2607Z" fill="#777777"/>
<path d="M97.8257 50.4131H248.5V201.087C248.5 212.264 239.439 221.326 228.261 221.326H21.7393C10.5614 221.326 1.5 212.264 1.5 201.087V50.4131H32.6089H34.1089V48.9131V10.8696C34.1089 5.69459 38.3036 1.5 43.478 1.5H86.9561C92.131 1.5 96.3257 5.69464 96.3257 10.8696V48.9131V50.4131H97.8257Z" fill="#8DC7FC" stroke="black" stroke-width="3"/>
<path d="M96.3262 10.8696V47.4131H34.1089V10.8696C34.1089 5.69459 38.3036 1.5 43.478 1.5H86.9561C92.1316 1.5 96.3262 5.69468 96.3262 10.8696Z" fill="#8DC7FC" stroke="black" stroke-width="3"/>
<path d="M81.522 15.0874L81.5222 15.0874C83.6949 15.087 85.4565 16.8483 85.4565 19.022V29.8916C85.4565 32.0646 83.695 33.8262 81.522 33.8262H48.9131C46.74 33.8262 44.9785 32.0646 44.9785 29.8916V19.022C44.9785 16.8489 46.74 15.0874 48.9131 15.0874H81.522Z" fill="#B2D1D8" stroke="black" stroke-width="3"/>
<path d="M38.0435 196.87C32.8685 196.87 28.6738 192.675 28.6738 187.5V127.717C28.6738 122.542 32.8685 118.348 38.0435 118.348H211.957C217.132 118.348 221.326 122.542 221.326 127.717V187.5C221.326 192.675 217.132 196.87 211.957 196.87H38.0435ZM86.9566 74.8696C92.1315 74.8696 96.3262 79.0643 96.3262 84.2393C96.3262 89.4138 92.1315 93.6089 86.9566 93.6089H38.0435C32.8685 93.6089 28.6738 89.4143 28.6738 84.2393C28.6738 79.0643 32.8685 74.8696 38.0435 74.8696H86.9566ZM211.957 74.8696C217.132 74.8696 221.326 79.0643 221.326 84.2393C221.326 89.4138 217.132 93.6089 211.957 93.6089H125C119.825 93.6089 115.63 89.4143 115.63 84.2393C115.63 79.0643 119.825 74.8696 125 74.8696H211.957Z" fill="#FBDFBB" stroke="black" stroke-width="3"/>
<path d="M179.207 179.348V180.848H180.707H211.957C217.132 180.848 221.326 185.043 221.326 190.218C221.326 195.393 217.131 199.587 211.956 199.587H210.326H209.21L208.889 200.656L198.863 234.077C198.863 234.077 198.863 234.077 198.863 234.077C196.295 242.637 188.415 248.5 179.478 248.5H130.305C121.368 248.5 113.488 242.637 110.919 234.076C110.919 234.076 110.919 234.076 110.919 234.076L100.893 200.656L100.572 199.587H99.4561H97.8257C92.6507 199.587 88.4561 195.392 88.4561 190.217C88.4561 185.042 92.6507 180.848 97.8257 180.848H129.076H130.576V179.348V158.967C130.576 145.561 141.485 134.652 154.891 134.652C168.297 134.652 179.207 145.561 179.207 158.967V179.348ZM135.728 179.348V180.848H137.228H172.554H174.054V179.348V158.967C174.054 148.4 165.459 139.804 154.891 139.804C144.323 139.804 135.728 148.4 135.728 158.967V179.348Z" fill="#FFA024" stroke="black" stroke-width="3"/>
<path d="M221.326 190.217C221.326 195.392 217.132 199.587 211.957 199.587H138.728V180.848H172.554H180.707H211.957C217.132 180.848 221.326 185.043 221.326 190.217ZM97.8262 180.848H127.576V199.587H97.8262C92.6512 199.587 88.4565 195.392 88.4565 190.217C88.4565 185.042 92.6512 180.848 97.8262 180.848ZM174.054 217.392C174.054 215.969 175.208 214.815 176.63 214.815C178.053 214.815 179.207 215.969 179.207 217.392V233.696C179.207 235.118 178.053 236.272 176.63 236.272C175.208 236.272 174.054 235.118 174.054 233.696V217.392ZM152.315 217.392C152.315 215.969 153.469 214.815 154.891 214.815C156.314 214.815 157.467 215.969 157.467 217.392V233.696C157.467 235.118 156.314 236.272 154.891 236.272C153.469 236.272 152.315 235.118 152.315 233.696V217.392ZM130.576 217.392C130.576 215.969 131.73 214.815 133.152 214.815C134.575 214.815 135.728 215.968 135.729 217.392C135.729 217.392 135.729 217.392 135.729 217.392V233.696C135.729 235.118 134.575 236.272 133.152 236.272C131.73 236.272 130.576 235.118 130.576 233.696V217.392Z" fill="#AF6D15" stroke="black" stroke-width="3"/>
</svg>
