<svg width="250" height="250" viewBox="0 0 250 250" fill="none" xmlns="http://www.w3.org/2000/svg">
<path d="M237.069 153.517H237.569V153.017V32.3276V31.8276H237.069H12.9312H12.4312V32.3276V153.017V153.517H12.9312H237.069ZM8.62061 19.8965H241.379C245.864 19.8965 249.5 23.532 249.5 28.0171V183.189C249.5 187.674 245.864 191.31 241.379 191.31H8.62061C4.13601 191.31 0.5 187.674 0.5 183.189V28.0171C0.5 23.532 4.13599 19.8965 8.62061 19.8965Z" fill="#464655" stroke="black"/>
<path d="M0.5 183.189V166.448H249.5V183.189C249.5 187.675 245.864 191.31 241.379 191.31H8.62061C4.13552 191.31 0.5 187.675 0.5 183.189Z" fill="#C7CFE2" stroke="black"/>
<path d="M154.731 192.311L158.917 225.793H91.0835L95.269 192.311H154.731Z" fill="#AFB9D2" stroke="black"/>
<path d="M95.269 192.311H154.731L155.684 199.931H94.3164L95.269 192.311Z" fill="#959CB3" stroke="black"/>
<path d="M130.965 178.879C130.965 182.174 128.295 184.845 125 184.845C121.705 184.845 119.035 182.174 119.035 178.879C119.035 175.585 121.705 172.914 125 172.914C128.295 172.914 130.965 175.585 130.965 178.879Z" fill="#959CB3" stroke="black"/>
<path d="M159.483 230.104H90.5171C88.4129 230.104 86.7065 228.397 86.7065 226.293C86.7065 224.189 88.4129 222.482 90.5171 222.482H159.482C161.587 222.482 163.293 224.189 163.293 226.293C163.293 228.397 161.587 230.104 159.483 230.104Z" fill="#C7CFE2" stroke="black"/>
<path d="M47.4141 80.2412H64.6553C66.7594 80.2412 68.4653 81.9474 68.4658 84.0518C68.4658 84.0518 68.4658 84.0518 68.4658 84.0519V135.776C68.4658 137.88 66.7595 139.586 64.6553 139.586H47.4141C45.3098 139.586 43.6035 137.88 43.6035 135.776V84.0518C43.6035 81.9475 45.3098 80.2412 47.4141 80.2412Z" fill="#0085FF" stroke="black"/>
<path d="M81.8965 63H99.1377C101.242 63 102.948 64.7063 102.948 66.8105V135.776C102.948 137.88 101.242 139.586 99.1377 139.586H81.8965C79.7923 139.586 78.0859 137.88 78.0859 135.776V66.8105C78.0859 64.7063 79.7923 63 81.8965 63Z" fill="#0085FF" stroke="black"/>
<path d="M116.379 45.7588H133.621C135.725 45.7588 137.431 47.4647 137.431 49.5688V135.776C137.431 137.881 135.725 139.587 133.621 139.587H116.379C114.275 139.587 112.569 137.881 112.569 135.776V49.5693C112.569 47.4651 114.275 45.7588 116.379 45.7588Z" fill="#FFA024" stroke="black"/>
<path d="M150.862 101.793H168.104C170.208 101.793 171.914 103.499 171.914 105.604C171.914 105.604 171.914 105.604 171.914 105.604V135.776C171.914 137.88 170.208 139.586 168.104 139.586H150.862C148.758 139.586 147.052 137.88 147.052 135.776V105.604C147.052 103.499 148.758 101.793 150.862 101.793Z" fill="#FFA024" stroke="black"/>
<path d="M185.345 80.2412H202.586C204.691 80.2412 206.397 81.9474 206.397 84.0518C206.397 84.0518 206.397 84.0518 206.397 84.0519V135.776C206.397 137.88 204.691 139.586 202.586 139.586H185.345C183.241 139.586 181.535 137.88 181.535 135.776V84.0518C181.535 81.9475 183.241 80.2412 185.345 80.2412Z" fill="#FFA024" stroke="black"/>
<path d="M52.2241 101.293C52.2241 99.1892 53.9304 97.4829 56.0347 97.4829C58.1389 97.4829 59.8447 99.1887 59.8447 101.293V139.586H52.2241V101.293Z" fill="#0D72CE" stroke="black"/>
<path d="M94.3271 139.586H86.7065V84.0518C86.7065 81.9475 88.4129 80.2412 90.5171 80.2412C92.6213 80.2412 94.3276 81.9475 94.3271 84.0517V84.0518V139.586Z" fill="#0D72CE" stroke="black"/>
<path d="M128.81 139.586H121.189V66.8105C121.189 64.7063 122.896 63 125 63C127.104 63 128.81 64.7063 128.81 66.8104V66.8105V139.586Z" fill="#D38116" stroke="black"/>
<path d="M155.672 139.586H163.293V122.845C163.293 120.741 161.587 119.034 159.483 119.034L155.672 139.586ZM155.672 139.586V122.845C155.672 120.741 157.379 119.035 159.482 119.034L155.672 139.586Z" fill="#D38116" stroke="black"/>
<path d="M197.775 139.586H190.155V101.293C190.155 99.1892 191.861 97.4829 193.965 97.4829C196.07 97.4829 197.776 99.1888 197.775 101.293V101.293V139.586Z" fill="#D38116" stroke="black"/>
</svg>
