<svg xmlns="http://www.w3.org/2000/svg" version="1.1" width="600px" height="600px" viewBox="0 0 200 200" style="overflow:hidden!important;"><g id="svga-group-wrapper"><g id="svga-group-backs-single"><path id="SvgjsPath14311" d="M0 0h200v200H0V0z" fill="#ecf0f1" stroke-width="none" opacity="1"></path></g><g id="svga-group-humanwrap-move" transform="matrix(1,0,0,1,0,-6)"><g id="svga-group-humanwrap" transform="matrix(0.9999999,0,0,0.9999999,0.000010000000372656359,0.000012120001017024151)"><g id="svga-group-hair-back-move" transform="matrix(1,2.856368900253737e-18,-2.856368900253737e-18,1,0,0)"><g id="svga-group-hair-back"></g></g><g id="svga-group-humanbody-back"><path id="SvgjsPath14246" d="m170 180.3-27.3-6.9-18-9.9-1.5-28.2H76.8l-1.5 28.2-18 9.9-27.3 6.9-9.1 19.7-3 20h164.2l-3-20z" fill="#f0c7b1" stroke-width="none" opacity="1" stroke="none"></path><path id="SvgjsPath14247" d="m76.8 135.3-1.5 28.2-18 9.9-27.3 6.9-9.1 19.7-3 20h14.6v-20l2.7-17.7 23.8-6.4 24.7-8.3 3.5-32.3z" fill="#d19271" stroke-width="none" opacity="1" stroke="none"></path></g><g id="svga-group-chinshadow-single"><path id="SvgjsPath14242" d="m123.7 145.5-.5-10.2H76.8l-.8 15.1 7.1 6.4 14.1 4.1 14.2-4.1z" fill="#c27b55" stroke-width="none" opacity="1" stroke="none"></path></g><g id="svga-group-humanbody-front"><path id="SvgjsPath14248" d="m92.8 168.3 2 7.9 6.9 4.6s-8.5-3-8.7-3.6c-.2-.6-.2-8.9-.2-8.9z" fill="#d19271" stroke-width="none" opacity="1" stroke="none"></path></g><g id="svga-group-clothes-single"><path id="SvgjsPath15795" d="m69.5 182.7 18.5 17 12.3 8.5 13.9-8.9 21-19.1V220H70.6z" fill="#ededed" stroke-width="none" opacity="1"></path><path id="SvgjsPath15796" d="m80.1 220-4.6-31.8-6-5.5.7 22.9 6.2 14.4z" fill="#d8d8d8" stroke-width="none" opacity="1"></path><path id="SvgjsPath15797" d="m75.3 163.5.6-11.1-23.3 15.9 1.3 1.1L26 180.2l-3.1.9-3.6 18.9-3.1 20h62l-6.8-40 3.9-16.5zM183.9 220l-3.1-20-3.7-18.9-3.1-.9-27.8-10.8 1.3-1.1-23.3-15.9.6 11.1 4 16.5-6.8 40h61.9z" fill="#161d40" stroke-width="none" opacity="1" stroke="none"></path><path id="SvgjsPath15798" d="m45.7 189.1 17.6-16.9 7.3-8.5-9 8.3-9.1-3.7 1.3 1.1L26 180.2l-3.1.9-3.6 18.9-3.2 20h12.3l2.9-32.5 1.4 1.9s4.7 12.7 5.1 13.2c.3.5 3.6 16.9 3.6 16.9L39 201.7l-5.8-13.4-1.9-1.9.2-1.8 26.2-12.8 2.3 1.4-17.6 16.3 18.1 15.1 10 15.3h1.9l-9.8-17.2-16.9-13.6zM71 175.9l.4 4.1 4-16.5.6-10.6-2.2 2.6-2.8 20.4zm75.2-6.5 1.3-1.1-9.1 3.7-9-8.3 7.3 8.5 17.6 16.9-16.9 13.7-9.8 17.2h1.9l10-15.3 18.1-15.1-17.6-16.3 6.2-3.9zm20.5 19-5.8 13.4-2.4 17.8s3.2-16.4 3.6-16.9 5.1-13.2 5.1-13.2l5.6-7.3-6.1 6.2zM129 175.9l-2.7-20.3-2.2-2.6.6 10.6 4 16.5.3-4.2z" fill="#0c1231" stroke-width="none" opacity="1" stroke="none"></path><path id="SvgjsPath15799" d="m149.3 188.7-15.1 13s-6.8 16.2-6.8 16.8 8.5-16 8.5-16l16.6-13.4-21.1-21.7 17.9 21.3zm-10.2-17.8 6-3-16.6-11.3 14.1 11.1-3.5 3.2zm31.1 10.4-5.3 4.9-3.6 10.9 4.9-10 7.2-6.2s-25.8-9.4-26.4-9.4l23.2 9.8zm5.7 2.1L177 200l4.9 17.2-6-33.8zm-105.8-16-3.4 12.1L76.9 219l-7.5-39 .7-12.6zm-8.1 7.3-14.7 14.1 15.5 12.3-12.4-11.5L62 174.7z" fill="#232b4f" stroke-width="none" opacity="1" stroke="none"></path></g><g id="svga-group-head" transform="matrix(1,2.856368900253737e-18,-2.856368900253737e-18,1,0,0)"><g id="svga-group-ears-left-move" transform="matrix(1,0,0,1,0,0)"><g id="svga-group-ears-left"><path id="SvgjsPath14140" d="m64.4 98.3-5.3-9.7-7-.9-2 7.2.4 8.9 7 11.4 6.1 4.5 3.8-11.6z" fill="#f0c7b1" stroke-width="none" opacity="1" stroke="none"></path><path id="SvgjsPath14141" d="m58.4 101.2-4.1-9.8-1.9 5.1.4 5 2.6 6.1-1.6-9.4 1.5-.7 1.3 10.8 2 2.1z" fill="#d19271" stroke-width="none" opacity="1" stroke="none"></path><path id="SvgjsPath14142" d="m60.7 101-3.2-11.6-5.4-1.7 7 .9 5.3 9.7 3 9.8-3.8 11.6-6.1-4.5 3.6.7z" fill="#e1ac8f" stroke-width="none" opacity="1" stroke="none"></path></g></g><g id="svga-group-ears-right-move" transform="matrix(1,0,0,1,0,0)"><g id="svga-group-ears-right"><path id="SvgjsPath14143" d="m135.6 98.3 5.3-9.7 7-.9 2 7.2-.4 8.9-7 11.4-6.1 4.5-3.8-11.6z" fill="#f0c7b1" stroke-width="none" opacity="1" stroke="none"></path><path id="SvgjsPath14144" d="m141.6 101.2 4.1-9.8 1.9 5.1-.4 5-2.6 6.1 1.6-9.4-1.5-.7-1.3 10.8-2 2.1z" fill="#d19271" stroke-width="none" opacity="1" stroke="none"></path><path id="SvgjsPath14145" d="m139.3 101 3.2-11.6 5.4-1.7-7 .9-5.3 9.7-3 9.8 3.8 11.6 6.1-4.5-3.6.7z" fill="#e1ac8f" stroke-width="none" opacity="1" stroke="none"></path></g></g><g id="svga-group-faceshape-wrap"><g id="svga-group-faceshape-single"><path id="SvgjsPath14228" d="M138.1 60c-6.9-11.6-19.7-19.5-19.7-19.5-7.2-1.5-18.4-2.3-18.4-2.3s-11.1.8-18.4 2.3c0 0-12.8 7.9-19.7 19.5 0 0-5.1 14.5-5.3 24.8l3.7 42.9 25.6 23.5 14.1 4 14.1-4 25.6-23.5 3.7-42.9c-.2-10.3-5.3-24.8-5.3-24.8z" fill="#f0c7b1" stroke-width="none" opacity="1" stroke="none"></path><path id="SvgjsPath14229" d="M86.5 148.4 66.3 125l-3.8-40.6 3.6-22.8c1.9-3.3 17.1-17.5 17.1-17.5l16.6-3 18.6-.6c-7.2-1.5-18.4-2.3-18.4-2.3s-11.1.8-18.4 2.3c0 0-12.8 7.9-19.7 19.5 0 0-5.1 14.5-5.3 24.8l3.7 42.9 25.6 23.5 14.1 4 14.1-4-14.4 2.6-13.2-5.4z" fill="#d19271" stroke-width="none" opacity="1" stroke="none"></path></g></g><g id="svga-group-mouth-single-move" transform="matrix(1,0,0,1,0,0)"><g id="svga-group-mouth-single"><path id="SvgjsPath15915" d="m84.99 125.5 2.75 3.94 12.37-.68 12.45.84 3.02-3.87-3.73 2.46-6.81-2.5-4.93 1.46-4.57-1.35-7.7 1.93z" fill="#da7c87" stroke-width="none" opacity="1" transform="translate(0 2)"></path><path id="SvgjsPath15916" d="m89.12 131.92 1.15 2.64 10.05 2.86 10.83-3.61-10.89 2.15-9.41-2.31-1.73-1.73z" fill="#d19271" stroke-width="none" opacity="1" transform="translate(0 2)"></path></g></g><g id="svga-group-eyes-left-move" transform="matrix(1,0,0,1,2,-1)"><g id="svga-group-eyes-left" transform="matrix(0.9499997000000001,0,0,0.9499997000000001,4.0300241037055855,4.762528765735993)"><g id="svga-group-eyesback-left"><path id="SvgjsPath15617" d="M90.5 99.6s-.5-5.6-1.8-7.4c-.2-.2-14.7.2-17.9.3L72 99l1.9 1.5c0 .1 15.6-.4 16.6-.9z" fill="#ffffff" stroke-width="none" opacity="1"></path></g><g id="svga-group-eyesiriswrapper-left" transform="matrix(1,0,0,1,0,0)"><g id="svga-group-eyesiriscontrol-left" transform="matrix(1,0,0,1,0,0)"><g id="svga-group-eyesiris-left"><path id="SvgjsPath14263" d="m77 97.9-1.3-3.8 1.9-3.7 3.9-1.2 3.6 1.9 1.2 3.8-1.8 3.6-3.9 1.3z" fill="#19ad1d" stroke-width="none" opacity="1"></path><path id="SvgjsPath14264" d="m81.5 89.5 3.4 1.8 1.2 3.7-1.8 3.4-3.7 1.2-3.4-1.8-1.2-3.7 1.8-3.4 3.7-1.2m0-.6-4.1 1.3-2 3.8 1.3 4.1 3.8 2 4.1-1.3 2-3.8-1.3-4.1-3.8-2z" fill="#008e04" stroke-width="none" opacity="1"></path><path id="SvgjsPath14265" d="m82.2 91.6-2.4.1-1.6 1.7v2.3l1.7 1.6h2.4l1.6-1.7v-2.3z" fill="#000000" stroke-width="none" opacity="1"></path><path id="SvgjsPath14266" d="m77.9 91.2.9 1.1-1.2-.7.3-.4zm2.1-1v1.3l-.6-1.1.6-.2zm1.7-.2-.3 1.3-.3-1.3h.6zm1.7.9-.7.8.2-1.1.5.3zm1.5 1-1.3.8 1-1.2.3.4zm.6 1.9-1.4.1 1.2-.6.2.5zm.1 1.5-1.2-.4 1.3-.1-.1.5zm-.9 1.4-.8-.7 1.1.3-.3.4zm-.8 1.5-.7-1.3 1.1.9-.4.4zm-1.8.6-.1-1.4.6 1.2-.5.2zm-1.8.1.5-1.2.1 1.3-.6-.1zm-2-1.1.9-.9-.4 1.2-.5-.3zM77 96.2l1.1-.3-.8.8-.3-.5zm-.4-1.7 1.3.3-1.3.2v-.5zm.5-1.9.8.7-1.1-.2.3-.5z" fill="#007703" stroke-width="none" opacity="1"></path><path id="SvgjsPath14267" d="m78 92 2.2 2 .6-.4-1.3-2.7z" fill="#ffffff" stroke-width="none" opacity="1"></path><path id="SvgjsPath14268" d="m82.1 96.6.5 1 .9-.4-.5-1z" fill="#ffffff" stroke-width="none" opacity="1"></path></g></g></g><g id="svga-group-eyesfront-left"><path id="SvgjsPath15625" d="M67.1 89.3v11.9l7.9 8.4h11.2l7.9-8.4V89.3l-7.9-8.4H75l-7.9 8.4zm3.7 3.2c3.2-.1 17.7-.5 17.9-.3 1.3 1.8 1.8 7.4 1.8 7.4-1 .5-16.6 1-16.6 1L72 99l-1.2-6.5z" fill="#f0c7b1" stroke-width="none" opacity="1" stroke="none"></path><path id="SvgjsPath15626" d="m89.8 95.1.3 4.3-3.1.5-.3-.5-2.3.8h2.1l.7 1.2 4.1-.1z" fill="#e1ac8f" stroke-width="none" opacity="1" stroke="none"></path><path id="SvgjsPath15627" d="m90.3 98.1-1.9-5.3H71.1l.2 1.6-1.4-.5-.6-1.9 21.2-.2-.9.7 1.3 7.1z" fill="#000000" stroke-width="none" opacity="1" stroke="none"></path></g></g></g><g id="svga-group-eyes-right-move" transform="matrix(1,0,0,1,-2,-1)"><g id="svga-group-eyes-right" transform="matrix(0.9499997000000001,0,0,0.9499997000000001,5.970035705558388,4.757528812030401)"><g id="svga-group-eyesback-right"><path id="SvgjsPath15618" d="M109.5 99.6s.5-5.6 1.8-7.4c.2-.2 14.6.2 17.9.3L128 99l-1.9 1.5c0 .1-15.6-.4-16.6-.9z" fill="#ffffff" stroke-width="none" opacity="1"></path></g><g id="svga-group-eyesiriswrapper-right" transform="matrix(1,0,0,1,0,0)"><g id="svga-group-eyesiriscontrol-right" transform="matrix(1,0,0,1,0,0)"><g id="svga-group-eyesiris-right"><path id="SvgjsPath14269" d="m114.9 97.9-1.2-3.8 1.8-3.7 3.9-1.2 3.6 1.9 1.3 3.8-1.9 3.6-3.9 1.3z" fill="#19ad1d" stroke-width="none" opacity="1"></path><path id="SvgjsPath14270" d="m119.4 89.5 3.4 1.8L124 95l-1.8 3.4-3.7 1.2-3.4-1.8-1.2-3.7 1.8-3.4 3.7-1.2m0-.6-4.1 1.3-2 3.8 1.3 4.1 3.8 2 4.1-1.3 2-3.8-1.3-4.1-3.8-2z" fill="#008e04" stroke-width="none" opacity="1"></path><path id="SvgjsPath14271" d="m120.1 91.6-2.4.1-1.6 1.7v2.3l1.7 1.6h2.4l1.6-1.7v-2.3z" fill="#000000" stroke-width="none" opacity="1"></path><path id="SvgjsPath14272" d="m115.9 91.2.8 1.1-1.2-.7.4-.4zm2-1v1.3l-.5-1.1.5-.2zm1.7-.2-.3 1.3-.3-1.3h.6zm1.7.9-.7.8.3-1.1.4.3zm1.5 1-1.3.8 1-1.2.3.4zm.6 1.9-1.3.1 1.1-.6.2.5zm.1 1.5-1.2-.4 1.3-.1-.1.5zm-.9 1.4-.8-.7 1.1.3-.3.4zm-.8 1.5-.7-1.3 1.1.9-.4.4zm-1.8.6-.1-1.4.6 1.2-.5.2zm-1.8.1.5-1.2.1 1.3-.6-.1zm-2-1.1.9-.9-.4 1.2-.5-.3zm-1.2-1.6 1-.3-.8.8-.2-.5zm-.5-1.7 1.3.3-1.3.2v-.5zm.5-1.9.8.7-1-.2.2-.5z" fill="#007703" stroke-width="none" opacity="1"></path><path id="SvgjsPath14273" d="m115.9 92 2.2 2 .6-.4-1.3-2.7z" fill="#ffffff" stroke-width="none" opacity="1"></path><path id="SvgjsPath14274" d="m120 96.6.5 1 .9-.4-.5-1z" fill="#ffffff" stroke-width="none" opacity="1"></path></g></g></g><g id="svga-group-eyesfront-right"><path id="SvgjsPath15628" d="M125 80.8h-11.2l-7.9 8.4v11.9l7.9 8.4H125l7.9-8.4V89.3l-7.9-8.5zm3 18.2-1.9 1.5s-15.6-.5-16.6-1c0 0 .5-5.6 1.8-7.4.2-.2 14.6.2 17.9.3L128 99z" fill="#f0c7b1" stroke-width="none" opacity="1" stroke="none"></path><path id="SvgjsPath15631" d="m110.2 95.1-.3 4.3 3.1.5.3-.5 2.3.8h-2.1l-.7 1.2-4.1-.1z" fill="#e1ac8f" stroke-width="none" opacity="1" stroke="none"></path><path id="SvgjsPath15632" d="m109.7 98.1 1.9-5.3h17.3l-.2 1.6 1.4-.5.6-1.9-21.2-.2.9.7-1.3 7.1z" fill="#000000" stroke-width="none" opacity="1" stroke="none"></path></g></g></g><g id="svga-group-facehighlight-single"></g><g id="svga-group-eyebrows-left-move" transform="matrix(1,0,0,1,0,0)"><g id="svga-group-eyebrows-left-rotate" transform="matrix(1,1.7453292519943295e-9,-1.7453292519943295e-9,1,1.4451326535436237e-7,-1.3849188462700113e-7)"><g id="svga-group-eyebrows-left"><path id="SvgjsPath14108" d="M74.2 77.6 71 79l-5 9 8.5-4.6 17.3 3.7.9-6z" fill="#543c32" stroke-width="none" opacity="1" stroke="none"></path><path id="SvgjsPath14109" d="m87.9 84-1.2-4-1.7-.4 2.9 4.4zM73 78.2l5.6 4.6-4.4-5.2-1.2.6zm6.9.5 3.8 5-1.9-4.6-1.9-.4zm-11.7 5.4 2.7-1.5-2.1.5-.6 1zm14.7-4.8 1.7 1.9-.5-1.7-1.2-.2zm-12.4.7 3.8.8L71 79l-.5 1zm16.6.1 3.5 5.2-1.4-4.7-2.1-.5z" fill="#634e45" stroke-width="none" opacity="1" stroke="none"></path></g></g></g><g id="svga-group-eyebrows-right-move" transform="matrix(1,0,0,1,0,0)"><g id="svga-group-eyebrows-right-rotate" transform="matrix(1,1.7453292519943295e-9,-1.7453292519943295e-9,1,1.4451326535436237e-7,-2.1057397248114285e-7)"><g id="svga-group-eyebrows-right"><path id="SvgjsPath14110" d="m107.3 81.1.9 6 17.3-3.7L134 88l-5-9-3.2-1.4z" fill="#543c32" stroke-width="none" opacity="1" stroke="none"></path><path id="SvgjsPath14111" d="m115 79.6-1.7.3-1.2 4 2.9-4.3zm10.8-2-4.4 5.2 5.6-4.6-1.2-.6zm-7.6 1.5-1.9 4.6 3.8-5-1.9.4zm12.9 4-2.1-.5 2.7 1.5-.6-1zm-15.2-3.6-.5 1.7 1.7-1.9-1.2.2zM129 79l-3.2 1.8 3.8-.8-.6-1zm-18.2 1.5-1.4 4.7 3.5-5.2-2.1.5z" fill="#634e45" stroke-width="none" opacity="1" stroke="none"></path></g></g></g><g id="svga-group-beardwrap"><g id="svga-group-beard-single-move" transform="matrix(1,0,0,1,0,0)"><g id="svga-group-beard-single" transform="matrix(0.8999995000000002,0,0,0.8999995000000002,10.005050330177284,13.335066522411324)"><path id="SvgjsPath14525" d="m139.1 103.7-5 2.3-1.6 6.3-.9 9.1-8 4.4-2.5-8.3-5.9-.9-8 .9-5.2 2.5h-3.9l-5.2-2.5-8-.9-5.9.9-2.5 8.3-8-4.4-.9-9.1L66 106l-5-2.3-4 19.1 1.6 9.2 28.2 31h26.5l28.2-30.9 1.6-9.2-.8-14.6-3.2-4.6zm-29.4 37.5-3.8 1.4-2.3-1v-2.9h-7.2v2.9l-2.3 1-3.8-1.4-7.4-12.6 1.1-3.5 5 1.9h7.9l2.5-.8h1.2l2.5.8h7.9l5-1.9 1.1 3.5-7.4 12.6z" fill="#543c32" stroke-width="none" opacity="1" stroke="none"></path><path id="SvgjsPath14526" d="m105.9 142.6-2.3-.9.7 10.1 1.9-8.1 1.1 9.3.5-9.1 3.5-1.4.5 6.2.8-7.5.4 6.1 1.6-9.8 2.6-6-.1-2.7-7.4 12.6-3.8 1.2zm-9.5-.9-2.3 1-3.8-1.4-5.2-8.8c1.4 3.4 3.9 9.1 3.9 9.1l1.6 6.7 1.3-5.1 2 10.2 1.9-9.4.9 5.8.8-5.6.5-5.3h-1.7l.1 2.8zm-13.6-13.1 1.1-3.5 5 1.9h7.9l2.5-.8h1.2l2.5.8h7.9l5-1.9 1.1 3.5-.2-3.3 2.4-5.5-3.4 4.6-5.2 1.9-7.3-.1-3.6-2.4-3.8 2.4-7.8-.4-5.5-4.2.3 2.6-4.1-6.6 4 11zm-10 5.8c-.1-.7-.7-7.4-1-11.2l-1.3-.7c.8 4.3 2.4 12.6 2.3 11.9zm3.6-8.6L75 125l.8 4 .6-3.2zm-2.3 4.1c0-.4.1-3.1.2-5.3l-1.9-1c.7 2.8 1.7 6.8 1.7 6.3zm-4.8-1.8c0-.4.3-3.7.5-5.9l-1.4-.8s.9 7.4.9 6.7zm56.1-1.9c0 .5 1.5 12.2 1.5 12.2l.4-13.4 1.2 5 .9-6.4.9 2.4.5-3.2.9 1.2-.3-2.5-8 4.4.4 6.6c.1-.1 1.6-6.8 1.6-6.3zM57 122.8l1.6 12.2L74 152l12.7 11h26.5l13-11.1 15.2-16.8 1.6-12.2s-2 7.5-2.2 8c-.3.5-2.3 2.7-2.3 2.7v-4.2s-.9 4.6-.9 5c0 .4-11.6 11.8-11.6 11.8s-.4-3.6-.4-4c0-.4-.9 5.4-.9 5.4l-.5-7.4-1.2 9.3-8.5 7.5-.4-2.7-1.1 3.7-13.3-1.9-12.1 1.5-8.3-7.4-1.5-5.2s-.7 2.8-.7 3.2c0 .4-2.6-7.8-2.6-7.8l.4 5.2-3.2-3.5-2.6-9.4v6.9l-6.9-7.7-2.5-9 1.1-19.2-3 5-.8 14.1z" fill="#452c22" stroke-width="none" opacity="1" stroke="none"></path></g></g></g><g id="svga-group-mustache-single-move" transform="matrix(1,0,0,1,0,0)"><g id="svga-group-mustache-single"></g></g><g id="svga-group-nose-single-move" transform="matrix(1,0,0,1,0,0)"><g id="svga-group-nose-single"><path id="SvgjsPath15061" d="m96.12 99.91-.45 6.4-5.78 8.87 2.98 2.25 1.63-2.02 4.32 3.82h2.41l4.27-3.82 1.57 1.96 3.15-2.19-5.79-8.92-.56-6.46-3.82-1.63z" fill="#f0c7b1" stroke-width="none" opacity="1" transform="translate(0 1)" stroke="none"></path><path id="SvgjsPath15062" d="m104.86 106.44-1.95-15.67 1.1 14.55-.86-.22 6.58 10.06-2.34 1.73-1.28-1.51.28-1.34-5.15 4.47h-2.4l-5.15-4.47.29 1.34-1.29 1.51-2.34-1.73 6.59-10.06-.86.22 1.33-22.81-2.19 23.93-5.82 8.83 3.81 2.79 1.44-2.01 4.19 3.91h2.4l4.2-3.91 1.43 2.01 3.81-2.79z" fill="#d19271" stroke-width="none" opacity="1" transform="translate(0 1)" stroke="none"></path><path id="SvgjsPath15063" d="m96.15 113.17 2.37 1.46 3.1.06 2.55-1.16-.3-1.76-3.59-.6-3.94.66z" fill="#f8d5c3" stroke-width="none" opacity="1" transform="translate(0 1)" stroke="none"></path></g></g><g id="svga-group-hair-front"><path id="SvgjsPath14355" d="m52.3 65.2-7.5 17 6.3-4.9s-1 5.2-2.9 9.9c-1.7 4.2-3.8 8.8-5.6 11.2 0 0 3.9-1.4 6.5-4.6l.5 10.6L57.4 88l6.1 11 1-15.5 2-7.6 2.2-8.7 2.6 12.1.9-12.5 3.7-5.2 9 1.2 10.2-1.4 8.4 2.6 11.6 8.4-4.7-12.4 9.7 2.2 7 6.4 4.7 11.7.6-10.9 4.7 15.8 5.1 13-.3-9.2 4.4 6.1 7.2 8.4-5.3-15.3 6.1 6.6-2.9-10.6-.8-9.7 6.1 4.8-6.1-13.4-8.9-7.6 14.2 4.5-18.7-15 13.5 3.2-13-9.8-13-3.2 1.1-5.8 10-5.3-15.1 3.2-10.9 3.9 4.2-11.6-11.5 10.4 1.2-7.4-8.3 9.7 1.8-6.8L86.7 38l.6-5.6-3.5 4.1 1.3-7.9-5.9 7.9-.2-5.4-7.6 10.1-1.8-4.3-1.3 5.8-6.1-11.2.8 16.8-5.7-8.7.7 12.8-10.5 9.8 10.9-4.8-6.1 7.8z" fill="#543c32" stroke-width="none" opacity="1" stroke="none"></path><path id="SvgjsPath14356" d="m77.3 58.8 10.3.7 13.7-3.4 9.4-10.6L116 42l-7.7 1.7-7 9.4s-13 4.3-13.7 4.3c-.7 0-10.3 1.4-10.3 1.4zm-2.2-4 7-5 2.7-6.5-4.1 6-5.6 5.5zm-6.5-3.2 7.7-4.6 4.6-5.3-3.6 6.7-8.7 3.2zm-5-14.9L65.5 49l-.7 7.5-2-8.1.8-11.7zM47.3 62.2l10.9-4.8 4.9-.5-5-1.7-10.8 7zm25.9-1.7L70.5 66v5.3l-1.7-6 4.4-4.8zm-7.7 6.8-4.3 14 1.4 13.9L59 81l6.5-13.7zm-15.2 32.9 6-12.8 1.5-10.6-3.6 10.8-3.9 12.6zm46.5-40.4 9.9 3.1 6.3 6.7-4.6-8.7-11.6-1.1zm13.2-4.1s11.1 3.8 11.8 3.8 15.4 1.2 15.4 1.2L142 62l-5.3-3.4-14.9-.7-11.8-2.2zm7.5-11.3 5.3-3.1 3.1-9-4.5 8-3.9 4.1zm18.3 22.4c0 .7.5 11.8.5 11.8l4.6 12.8-2.2-13-2.9-11.6zm6 3.1s6 8.2 6.5 9.9c.5 1.7 3.9 10.3 3.9 10.3l-5.5-7.9-4.9-12.3zm-22.9-21.2c.7-.7 18-4.3 18-4.3l13.8 6.7-13.5-3.2-18.3.8z" fill="#634e45" stroke-width="none" opacity="1" stroke="none"></path></g><g id="svga-group-glasses-single-move" transform="matrix(1,0,0,1,0,0)"><g id="svga-group-glasses-single"></g></g></g></g></g><rect id="svga-credit-rect" width="200" height="15" x="0" y="185" fill="#ecf0f1" opacity="0.5" style="display: none;"></rect><text id="svga-credit-text" font-family="Avenir Next, Roboto, Helvetica, Arial, sans-serif" font-size="10px" text-anchor="start" font-weight="400" size="10px" anchor="start" weight="400" fill="#333333" x="33.402061462402344" y="182.71133995056152" style="display: none;"><tspan id="SvgjsTspan14097" dy="13" x="33.402061462402344">Created on AvatarMaker.com</tspan></text></g><defs id="SvgjsDefs14044"></defs></svg>