<svg width="250" height="250" viewBox="0 0 250 250" fill="none" xmlns="http://www.w3.org/2000/svg">
<path d="M51.0742 89.8438V143.018H18.8965C16.6016 143.018 14.6973 141.162 14.6973 138.818V93.9941C14.6973 91.6992 16.5527 89.7949 18.8965 89.7949H51.0742V89.8438Z" fill="#86C5FF"/>
<path d="M51.0742 133.643V142.969H18.8965C16.6016 142.969 14.6973 141.113 14.6973 138.77V129.395C14.6973 131.738 16.5527 133.594 18.8965 133.594H51.0742V133.643Z" fill="#0085FF"/>
<path d="M51.0742 89.8438V99.1699H18.8965C16.6016 99.1699 14.6973 101.025 14.6973 103.369V94.043C14.6973 91.6992 16.5527 89.8438 18.8965 89.8438H51.0742Z" fill="#BFE0FF"/>
<path d="M1.95312 99.9023V132.91C1.95312 135.205 3.80859 137.109 6.15234 137.109H14.7461V95.752H6.15234C3.80859 95.752 1.95312 97.6074 1.95312 99.9023Z" fill="#D3D9D9"/>
<path d="M14.7461 95.752V102.881H6.15234C3.85742 102.881 1.95312 104.736 1.95312 107.08V99.9512C1.95312 97.6562 3.80859 95.752 6.15234 95.752H14.7461Z" fill="#E8EAEA"/>
<path d="M14.7461 129.98V137.109H6.15234C3.85742 137.109 1.95312 135.254 1.95312 132.91V125.781C1.95312 128.076 3.80859 129.98 6.15234 129.98H14.7461Z" fill="#A8B2B4"/>
<path d="M142.773 46.7285L51.0742 89.8437V143.018L142.773 186.133V46.7285Z" fill="#FCCA8A"/>
<path d="M161.084 45.6055V187.207C161.084 189.404 159.277 191.26 157.031 191.26H146.826C144.629 191.26 142.773 189.453 142.773 187.207V45.6055C142.773 43.4082 144.58 41.5527 146.826 41.5527H157.031C159.229 41.5527 161.084 43.4082 161.084 45.6055Z" fill="#86C5FF"/>
<path d="M161.084 45.6055V56.6895C161.084 54.4922 159.277 52.6367 157.031 52.6367H146.826C144.629 52.6367 142.773 54.4434 142.773 56.6895V45.6055C142.773 43.4082 144.58 41.5527 146.826 41.5527H157.031C159.229 41.5527 161.084 43.4082 161.084 45.6055Z" fill="#BFE0FF"/>
<path d="M161.084 176.123V187.207C161.084 189.404 159.277 191.26 157.031 191.26H146.826C144.629 191.26 142.773 189.453 142.773 187.207V176.123C142.773 178.32 144.58 180.176 146.826 180.176H157.031C159.229 180.176 161.084 178.369 161.084 176.123Z" fill="#0085FF"/>
<path d="M142.773 171.777L51.0742 129.297V143.018L142.773 186.133V171.777Z" fill="#FFA024"/>
<path d="M142.773 46.7285L51.0742 89.8437V103.564L142.773 61.084V46.7285Z" fill="#FFE6C6"/>
<path d="M46.8262 164.844C46.8262 170.313 42.6758 170.312 42.6758 175.732C42.6758 181.201 46.8262 181.201 46.8262 186.621C46.8262 192.09 42.6758 192.09 42.6758 197.51C42.6758 202.979 46.8262 202.979 46.8262 208.398H23.7305C21.0937 208.398 18.9453 206.299 18.9453 203.662V143.018H46.8262C46.8262 148.486 42.6758 148.486 42.6758 153.906C42.6758 159.375 46.8262 159.375 46.8262 164.844Z" fill="#D3D9D9"/>
<path d="M42.6758 153.906C42.6758 154.004 42.6758 154.15 42.6758 154.248H18.9453V142.969H46.875C46.875 148.486 42.6758 148.486 42.6758 153.906Z" fill="#E8EAEA"/>
<path d="M46.875 208.447H23.7305C21.1426 208.447 18.9453 206.348 18.9453 203.711V192.432C18.9453 195.068 21.0937 197.168 23.7305 197.168H42.6758C42.6758 197.266 42.6758 197.412 42.6758 197.51C42.6758 202.979 46.875 202.979 46.875 208.447Z" fill="#A8B2B4"/>
<path d="M157.031 39.5996H146.826C143.555 39.5996 140.918 42.2363 140.869 45.459L50.6836 87.8906H18.9453C15.625 87.8906 12.9395 90.5273 12.8418 93.7988H6.15234C2.7832 93.7988 0 96.5332 0 99.9512V132.959C0 136.328 2.73438 139.111 6.15234 139.111H12.793C12.8906 141.748 14.6484 143.896 16.9922 144.678V203.76C16.9922 207.471 20.0195 210.498 23.7305 210.498H46.875C47.9492 210.498 48.8281 209.619 48.8281 208.545C48.8281 205.176 47.4609 203.369 46.3379 201.904C44.0918 198.975 43.9941 196.436 46.3379 193.408C49.6094 189.16 49.8535 184.717 46.3379 180.127C44.043 177.1 44.043 174.561 46.3379 171.582C49.707 167.09 49.707 162.793 46.3379 158.301C44.1406 155.42 43.9941 152.881 46.3379 149.805C47.2168 148.682 48.2422 147.266 48.6328 145.117H50.6348L140.82 187.549C140.918 190.771 143.555 193.408 146.777 193.408H156.982C160.303 193.408 162.988 190.723 162.988 187.402V45.8008C163.037 42.2852 160.352 39.5996 157.031 39.5996ZM12.793 135.156H6.15234C4.93164 135.156 3.90625 134.18 3.90625 132.91V99.9023C3.90625 98.6816 4.88281 97.6562 6.15234 97.6562H12.793V135.156ZM43.2129 169.092C39.8438 173.486 39.8926 178.076 43.2129 182.373C45.5566 185.449 45.459 187.988 43.2129 190.918C39.8926 195.215 39.8438 199.707 43.2129 204.199C43.7988 204.98 44.2871 205.615 44.5801 206.494H23.7305C22.168 206.494 20.8984 205.225 20.8984 203.662V144.971H44.5801C44.2871 145.85 43.7988 146.533 43.2129 147.314C39.7949 151.709 39.8926 156.299 43.2129 160.596C45.5078 163.477 45.5566 166.064 43.2129 169.092ZM49.1211 141.064H18.8965C17.6758 141.064 16.6504 140.088 16.6504 138.818V93.9941C16.6504 92.7734 17.627 91.748 18.8965 91.748H49.1211V141.064ZM140.82 183.057L53.0273 141.748V91.0645L140.82 49.8047V183.057ZM159.131 187.207C159.131 188.33 158.154 189.307 157.031 189.307H146.826C145.703 189.307 144.727 188.33 144.727 187.207V45.6055C144.727 44.4824 145.703 43.5059 146.826 43.5059H157.031C158.154 43.5059 159.131 44.4824 159.131 45.6055V187.207Z" fill="#333333"/>
<path d="M248.047 35.1074C248.047 53.3691 233.203 68.2129 214.893 68.2129C208.838 68.2129 203.174 66.6016 198.291 63.7695L177.93 72.0215L186.182 51.6602C183.35 46.7773 181.738 41.1133 181.738 35.1074C181.738 16.7969 196.582 1.95312 214.893 1.95312C233.203 1.95312 248.047 16.7969 248.047 35.1074Z" fill="#7AD1F9"/>
<path d="M205.42 48.7793C207.739 48.7793 209.619 46.8992 209.619 44.5801C209.619 42.2609 207.739 40.3809 205.42 40.3809C203.101 40.3809 201.221 42.2609 201.221 44.5801C201.221 46.8992 203.101 48.7793 205.42 48.7793Z" fill="#D3F0FD"/>
<path d="M227.344 28.5645C225.684 30.2246 223.047 30.2246 221.387 28.5645C219.775 26.9043 219.775 24.2676 221.387 22.6562C223.047 20.9961 225.684 20.9961 227.344 22.6562C228.955 24.2676 228.955 26.9043 227.344 28.5645Z" fill="#D3F0FD"/>
<path d="M214.893 39.3066C217.212 39.3066 219.092 37.4266 219.092 35.1074C219.092 32.7883 217.212 30.9082 214.893 30.9082C212.573 30.9082 210.693 32.7883 210.693 35.1074C210.693 37.4266 212.573 39.3066 214.893 39.3066Z" fill="#D3F0FD"/>
<path d="M248.047 35.1074C248.047 53.3691 233.203 68.2129 214.893 68.2129C208.838 68.2129 203.174 66.6016 198.291 63.7695L177.93 72.0215L181.982 62.0117L197.119 55.8594C202.002 58.6914 207.666 60.3027 213.721 60.3027C232.031 60.3027 246.875 45.459 246.875 27.1973C246.875 26.9043 246.875 26.6113 246.875 26.3184C247.607 29.1016 248.047 32.0312 248.047 35.1074Z" fill="#4CC3F7"/>
<path d="M248.047 34.2773C244.189 20.2148 231.348 9.91211 216.064 9.91211C197.754 9.91211 182.91 24.7559 182.91 43.0664C182.91 43.3594 182.91 43.6035 182.91 43.8477C182.129 41.0645 181.738 38.1348 181.738 35.1562C181.738 16.8457 196.582 2.00195 214.893 2.00195C232.91 1.95313 247.607 16.3574 248.047 34.2773Z" fill="#A6E1FB"/>
<path d="M238.33 148.438C225.391 161.377 204.443 161.377 191.455 148.438C187.158 144.141 184.326 138.965 182.861 133.545L166.699 125L182.91 116.455C184.375 110.986 187.207 105.859 191.504 101.611C204.443 88.6719 225.439 88.6719 238.379 101.611C251.27 114.502 251.27 135.498 238.33 148.438Z" fill="#FFA024"/>
<path d="M238.33 148.438C225.391 161.377 204.443 161.377 191.455 148.438C187.158 144.141 184.326 138.965 182.861 133.545L166.699 125L182.91 116.455C184.375 110.986 187.207 105.859 191.504 101.611C204.443 88.6719 225.439 88.6719 238.379 101.611C251.27 114.502 251.27 135.498 238.33 148.438Z" fill="#FFA024"/>
<path d="M205.029 125C205.029 127.441 202.979 129.492 200.537 129.492C198.047 129.492 196.045 127.441 196.045 125C196.045 122.51 198.047 120.508 200.537 120.508C203.027 120.508 205.029 122.51 205.029 125Z" fill="#D3F3DE"/>
<path d="M233.789 125C233.789 127.49 231.787 129.492 229.297 129.492C226.855 129.492 224.805 127.49 224.805 125C224.805 122.51 226.807 120.508 229.297 120.508C231.787 120.508 233.789 122.51 233.789 125Z" fill="#D3F3DE"/>
<path d="M219.434 125C219.434 127.49 217.383 129.492 214.941 129.492C212.451 129.492 210.449 127.49 210.449 125C210.449 122.559 212.451 120.508 214.941 120.508C217.383 120.508 219.385 122.51 219.434 125Z" fill="#D3F3DE"/>
<path d="M241.309 145.02C240.43 146.191 239.404 147.363 238.33 148.437C225.391 161.377 204.443 161.377 191.455 148.437C187.158 144.141 184.326 138.965 182.861 133.545L166.699 125L173.486 121.387L187.354 128.711C188.77 134.18 191.65 139.355 195.947 143.604C208.398 156.055 228.32 156.543 241.309 145.02Z" fill="#FCBE6C"/>
<path d="M238.33 148.438C237.842 148.926 237.354 149.414 236.865 149.805C246.729 136.816 245.752 118.213 233.887 106.348C221.436 93.8965 201.465 93.457 188.477 104.98C189.404 103.76 190.381 102.637 191.504 101.514C204.443 88.5742 225.439 88.5742 238.379 101.514C251.27 114.502 251.27 135.498 238.33 148.438Z" fill="#F5D2A3"/>
<path d="M248.047 214.893C248.047 233.203 233.203 248.047 214.893 248.047C196.631 248.047 181.787 233.203 181.787 214.893C181.787 208.838 183.398 203.174 186.23 198.291L177.979 177.93L198.34 186.182C203.223 183.35 208.887 181.738 214.893 181.738C233.203 181.738 248.047 196.582 248.047 214.893Z" fill="#46A4FB"/>
<path d="M218.066 211.719C219.824 213.477 219.824 216.309 218.066 218.066C216.309 219.824 213.477 219.824 211.719 218.066C209.961 216.309 209.961 213.477 211.719 211.719C213.477 210.01 216.309 210.01 218.066 211.719Z" fill="#E9DAE9"/>
<path d="M204.736 209.229C207.217 209.229 209.229 207.217 209.229 204.736C209.229 202.255 207.217 200.244 204.736 200.244C202.255 200.244 200.244 202.255 200.244 204.736C200.244 207.217 202.255 209.229 204.736 209.229Z" fill="#E9DAE9"/>
<path d="M228.223 228.223C226.465 229.98 223.633 229.98 221.875 228.223C220.117 226.465 220.117 223.633 221.875 221.875C223.633 220.117 226.465 220.117 228.223 221.875C229.98 223.633 229.98 226.514 228.223 228.223Z" fill="#E9DAE9"/>
<path d="M248.047 214.893C248.047 233.203 233.203 248.047 214.893 248.047C196.875 248.047 182.227 233.643 181.787 215.723C185.645 229.785 198.486 240.088 213.721 240.088C232.031 240.088 246.875 225.244 246.875 206.934C246.875 206.641 246.875 206.348 246.875 206.104C247.607 208.936 248.047 211.865 248.047 214.893Z" fill="#0085FF"/>
<path d="M246.875 214.063C243.018 200 230.176 189.697 214.893 189.697C208.838 189.697 203.174 191.309 198.34 194.141L180.469 186.914L176.855 178.027L197.217 186.279C202.1 183.447 207.764 181.836 213.77 181.836C231.787 181.738 246.436 196.143 246.875 214.063Z" fill="#87BCED"/>
<path d="M177.978 73.9746C177.49 73.9746 176.953 73.7793 176.611 73.3887C176.074 72.8516 175.879 72.0215 176.172 71.2891L184.082 51.8066C181.299 46.7285 179.834 40.9668 179.834 35.1074C179.834 15.7715 195.557 0 214.941 0C234.326 0 250 15.7227 250 35.1074C250 54.4434 234.277 70.166 214.892 70.166C209.033 70.166 203.271 68.7012 198.193 65.918L178.711 73.8281C178.467 73.9258 178.223 73.9746 177.978 73.9746ZM214.892 3.90625C197.705 3.90625 183.691 17.9199 183.691 35.1074C183.691 40.5762 185.156 45.9961 187.89 50.6836C188.183 51.2207 188.232 51.8555 188.037 52.3926L181.543 68.457L197.607 61.9629C198.144 61.7188 198.779 61.7676 199.316 62.0605C204.053 64.7949 209.424 66.2598 214.941 66.2598C232.129 66.2598 246.142 52.2949 246.142 35.1074C246.094 17.9199 232.08 3.90625 214.892 3.90625Z" fill="#333333"/>
<path d="M190.088 149.805C185.889 145.605 182.861 140.479 181.25 134.863L165.82 126.709C165.186 126.367 164.795 125.684 164.795 125C164.795 124.268 165.186 123.633 165.82 123.291L181.25 115.137C182.91 109.521 185.937 104.395 190.088 100.244C203.76 86.5723 226.025 86.5723 239.697 100.244C246.338 106.885 250 115.674 250 125.049C250 134.424 246.338 143.213 239.697 149.854C226.074 163.428 203.857 163.525 190.088 149.805ZM170.898 125L183.838 131.787C184.326 132.031 184.668 132.471 184.814 133.008C186.182 138.281 188.965 143.115 192.871 147.021C205.029 159.18 224.805 159.18 236.963 147.021C249.121 134.863 249.121 115.088 236.963 102.93C224.805 90.7715 205.029 90.7715 192.871 102.93C189.014 106.787 186.182 111.621 184.814 116.895C184.668 117.432 184.326 117.871 183.838 118.115L170.898 125Z" fill="#333333"/>
<path d="M214.893 250C195.557 250 179.834 234.277 179.834 214.893C179.834 209.033 181.299 203.271 184.082 198.193L176.172 178.711C175.879 177.978 176.025 177.148 176.611 176.611C177.148 176.074 178.027 175.879 178.711 176.172L198.193 184.082C203.271 181.299 209.033 179.834 214.893 179.834C234.229 179.834 250 195.557 250 214.941C250 234.277 234.229 250 214.893 250ZM181.543 181.494L188.037 197.559C188.281 198.096 188.232 198.73 187.891 199.268C185.156 203.955 183.691 209.375 183.691 214.844C183.691 232.031 197.656 246.045 214.844 246.045C232.031 246.045 246.045 232.031 246.045 214.844C246.045 197.656 232.031 183.643 214.844 183.643C209.375 183.643 203.955 185.107 199.268 187.842C198.73 188.135 198.096 188.184 197.559 187.988L181.543 181.494Z" fill="#333333"/>
</svg>
