<svg width="250" height="250" viewBox="0 0 250 250" fill="none" xmlns="http://www.w3.org/2000/svg">
<path d="M1.95312 181.592V198.438C1.95312 202.637 5.32227 206.006 9.52148 206.006H240.43C244.629 206.006 248.047 202.637 248.047 198.438V181.592H1.95312Z" fill="#D3D9D9"/>
<path d="M222.266 206.006H240.479C244.629 206.006 247.998 202.637 247.998 198.486V181.592H229.834V198.486C229.834 202.637 226.465 206.006 222.266 206.006Z" fill="#A8B2B4"/>
<path d="M27.7344 206.006H9.47266C5.32227 206.006 1.95312 202.637 1.95312 198.486V181.592H20.1172V198.486C20.1172 202.637 23.4863 206.006 27.7344 206.006Z" fill="#EDEDED"/>
<path d="M248.047 24.3164V181.592H1.95312V24.3164C1.95312 20.166 5.32227 16.748 9.47266 16.748H240.381C244.58 16.748 248.047 20.166 248.047 24.3164Z" fill="#0085FF" fill-opacity="0.4"/>
<path d="M240.43 14.7949H9.52148C4.29688 14.7949 0 19.043 0 24.3164V198.437C0 203.711 4.29688 207.959 9.52148 207.959H97.6562L87.1094 231.299H80.7129C79.6387 231.299 78.7598 232.178 78.7598 233.252C78.7598 234.326 79.6387 235.205 80.7129 235.205H169.385C170.459 235.205 171.338 234.326 171.338 233.252C171.338 232.178 170.459 231.299 169.385 231.299H162.988L152.344 207.959H240.43C245.703 207.959 250 203.662 250 198.437V24.3164C250 19.043 245.703 14.7949 240.43 14.7949ZM158.594 231.299H91.3574L101.904 207.959H147.998L158.594 231.299ZM246.094 198.437C246.094 201.514 243.555 204.053 240.43 204.053H9.52148C6.44531 204.053 3.90625 201.514 3.90625 198.437V183.545H246.094V198.437ZM246.094 179.639H3.90625V24.3164C3.90625 21.1914 6.39648 18.7012 9.47266 18.7012H240.381C243.506 18.7012 246.045 21.2402 246.045 24.3164V179.639H246.094Z" fill="#333333"/>
<path d="M116.504 193.799C116.504 195.752 114.941 197.266 113.037 197.266C111.133 197.266 109.57 195.703 109.57 193.799C109.57 191.895 111.133 190.332 113.037 190.332C114.941 190.332 116.504 191.895 116.504 193.799Z" fill="#7C8B8E"/>
<path d="M128.467 193.799C128.467 195.752 126.904 197.266 125 197.266C123.096 197.266 121.533 195.703 121.533 193.799C121.533 191.895 123.096 190.332 125 190.332C126.904 190.332 128.467 191.895 128.467 193.799Z" fill="#7C8B8E"/>
<path d="M140.479 193.799C140.479 195.752 138.916 197.266 137.012 197.266C135.107 197.266 133.545 195.703 133.545 193.799C133.545 191.895 135.107 190.332 137.012 190.332C138.916 190.332 140.479 191.895 140.479 193.799Z" fill="#7C8B8E"/>
<path d="M186.475 72.2168C176.954 81.7383 161.524 81.7383 151.954 72.2168C142.432 62.6954 142.432 47.2168 151.954 37.6954C158.692 30.9571 168.36 29.0039 176.807 31.7871L158.741 49.8536L161.963 62.2071L174.317 65.4297L192.383 47.3633C195.167 55.7618 193.213 65.4786 186.475 72.2168Z" fill="#D3D8D9"/>
<path d="M176.856 31.7872L173.633 35.0098C167.383 35.0098 161.182 37.4024 156.446 42.1387C147.657 50.9278 146.973 64.7462 154.395 74.2676C153.565 73.6329 152.784 72.9493 152.002 72.168C142.481 62.6465 142.481 47.2169 152.002 37.6465C158.692 30.9571 168.409 29.004 176.856 31.7872Z" fill="#EDEDED"/>
<path d="M186.475 72.2168C176.954 81.7383 161.524 81.7383 151.954 72.2168C151.221 71.4844 150.489 70.7031 149.903 69.8731C159.473 77.2461 173.243 76.5625 182.032 67.7734C186.768 63.0371 189.161 56.7871 189.161 50.5859L192.383 47.3633C195.167 55.7617 193.213 65.4785 186.475 72.2168Z" fill="#A8B1B3"/>
<path d="M63.5257 126.123C73.0472 116.602 88.4768 116.602 98.0472 126.123C107.569 135.645 107.569 151.123 98.0472 160.645C91.3089 167.383 81.6409 169.336 73.1936 166.553L91.26 148.486L88.0374 136.133L75.6839 132.91L57.6175 150.977C54.8343 142.529 56.7874 132.861 63.5257 126.123Z" fill="#D3D8D9"/>
<path d="M73.1934 166.553L76.416 163.33C82.666 163.33 88.8672 160.937 93.6035 156.201C102.393 147.412 103.076 133.594 95.6543 124.072C96.4844 124.707 97.2656 125.391 98.0469 126.172C107.568 135.693 107.568 151.123 98.0469 160.693C91.3086 167.383 81.6406 169.336 73.1934 166.553Z" fill="#A8B1B3"/>
<path d="M63.5256 126.123C73.0471 116.602 88.4768 116.602 98.0471 126.123C98.7795 126.855 99.5119 127.637 100.098 128.467C90.5275 121.094 76.758 121.777 67.969 130.566C63.2326 135.303 60.84 141.553 60.84 147.754L57.6174 150.977C54.8342 142.529 56.8361 132.861 63.5256 126.123Z" fill="#EDEDED"/>
<path d="M132.959 107.08C123.536 116.504 113.624 125.537 103.37 134.033C102.198 131.152 100.391 128.467 98.0962 126.123C95.7524 123.779 93.0669 122.021 90.186 120.85C98.731 110.547 107.715 100.684 117.139 91.2598C126.563 81.8359 136.426 72.8516 146.729 64.3066C147.95 67.1875 149.708 69.873 152.051 72.2168C154.395 74.5605 157.081 76.3184 159.961 77.4902C151.368 87.793 142.383 97.6563 132.959 107.08Z" fill="#A8B1B3"/>
<path d="M159.913 77.4902C151.368 87.793 142.383 97.6563 132.959 107.08C123.536 116.504 113.672 125.537 103.37 134.033C102.637 132.275 101.709 130.566 100.538 129.004C110.401 120.801 119.874 112.109 128.907 103.027C137.94 93.9941 146.631 84.5215 154.883 74.6582C156.446 75.8301 158.155 76.7578 159.913 77.4902Z" fill="#7C8B8D"/>
<path d="M146.68 64.3066C147.413 66.0645 148.34 67.7246 149.512 69.3359C139.649 77.5879 130.176 86.2305 121.143 95.3125C112.11 104.395 103.418 113.867 95.1665 123.682C93.604 122.51 91.895 121.582 90.1372 120.85C98.6821 110.547 107.667 100.684 117.09 91.2598C126.514 81.7871 136.377 72.8027 146.68 64.3066Z" fill="#D3D8D9"/>
<path d="M90.2111 55.2042L80.958 64.4573L134.716 118.215L143.969 108.962L90.2111 55.2042Z" fill="#D3D8D9"/>
<path d="M90.2448 55.1876L80.9917 64.4407L86.2397 69.6887L95.4928 60.4356L90.2448 55.1876Z" fill="#EDEDED"/>
<path d="M138.723 103.691L129.47 112.944L134.718 118.192L143.971 108.939L138.723 103.691Z" fill="#A8B1B3"/>
<path d="M90.2344 55.1758L80.957 64.4531L76.0254 60.9863L68.0176 55.4199L61.377 44.873L70.6543 35.5957L81.2012 42.2363L86.7676 50.2441L90.2344 55.1758Z" fill="#D3D8D9"/>
<path d="M75.5859 38.7207L64.502 49.8047L61.377 44.873L70.6543 35.5957L75.5859 38.7207Z" fill="#EDEDED"/>
<path d="M90.2344 55.1758L80.957 64.4531L76.0254 60.9863L86.7676 50.2441L90.2344 55.1758Z" fill="#A8B1B3"/>
<path d="M131.055 127.588L166.357 162.891C172.266 168.799 181.885 169.482 188.184 164.014C191.797 160.84 193.604 156.494 193.604 152.1C193.604 148.047 192.041 143.994 188.965 140.967L153.32 105.322C151.758 103.76 149.17 103.76 147.607 105.322L131.055 121.875C129.492 123.437 129.492 125.977 131.055 127.588Z" fill="#FFA024"/>
<path d="M186.963 164.893C187.353 164.6 187.793 164.258 188.184 163.965C191.797 160.791 193.604 156.445 193.604 152.051C193.604 147.998 192.041 143.945 188.965 140.918L153.32 105.273C151.758 103.711 149.17 103.711 147.607 105.273L143.896 108.984C145.459 107.422 148.047 107.422 149.609 108.984L185.254 144.629C188.33 147.705 189.844 151.758 189.893 155.762C189.893 158.984 188.916 162.207 186.963 164.893Z" fill="#FCB1B1"/>
<path d="M131.055 127.588L166.357 162.891C172.266 168.799 181.885 169.482 188.184 164.014C189.16 163.184 189.99 162.256 190.674 161.23C184.375 165.674 175.586 164.697 170.068 159.18L134.766 123.877C133.203 122.314 133.203 119.727 134.766 118.164L131.055 121.875C129.492 123.437 129.492 125.977 131.055 127.588Z" fill="#FFA024"/>
<path d="M154.736 103.906C152.393 101.563 148.584 101.563 146.24 103.906L143.945 106.201L140.186 102.441C147.217 95.1172 154.004 87.5488 160.498 79.7852C170.313 83.252 180.811 80.6153 187.842 73.584C194.922 66.5039 197.363 56.2012 194.238 46.7285C194.043 46.0938 193.506 45.6055 192.822 45.459C192.188 45.3125 191.455 45.5078 190.967 45.9961L173.682 63.2813L163.526 60.6446L160.889 50.4883L178.223 33.1543C178.711 32.666 178.906 31.9824 178.76 31.3477C178.613 30.6641 178.125 30.1758 177.49 29.9317C167.969 26.8067 157.715 29.2481 150.635 36.3282C143.262 43.7012 141.211 54.3946 144.483 63.6719C136.719 70.1172 129.151 76.9531 121.826 83.9844L91.797 53.9551L82.8127 41.1133C82.6662 40.918 82.4709 40.7227 82.2267 40.5762L71.6798 33.9356C70.8986 33.4473 69.922 33.5449 69.2384 34.2285L59.9611 43.5059C59.3263 44.1407 59.1798 45.166 59.6681 45.9473L66.3087 56.4942C66.4552 56.6895 66.6017 56.8848 66.8459 57.0313L79.6388 65.9668L109.668 95.9961C102.637 103.32 95.8498 110.84 89.4045 118.555C79.59 114.99 68.9455 117.822 62.0607 124.756C54.9806 131.836 52.5392 142.139 55.6642 151.611C55.8595 152.246 56.3966 152.734 57.0802 152.881C57.715 153.027 58.4474 152.832 58.9357 152.344L76.2209 135.059L86.3771 137.695L89.0138 147.852L71.7775 165.186C71.2892 165.674 71.0939 166.357 71.2404 167.041C71.3869 167.725 71.8752 168.213 72.5099 168.457C75.2443 169.336 78.0275 169.824 80.8107 169.824C87.6466 169.824 94.3361 167.139 99.3654 162.109C106.738 154.736 108.789 144.043 105.567 134.766C113.281 128.32 120.801 121.533 128.125 114.502L131.885 118.262L129.59 120.557C127.246 122.9 127.246 126.709 129.59 129.053L164.893 164.355C171.631 171.094 182.373 171.631 189.404 165.527C197.168 158.74 197.608 146.875 190.332 139.6L154.736 103.906ZM153.369 39.0625C157.666 34.7657 163.33 32.4707 169.19 32.4707C170.459 32.4707 171.778 32.5684 173.047 32.8125L157.422 48.4375C156.934 48.9258 156.738 49.6582 156.934 50.293L160.156 62.6465C160.352 63.3301 160.889 63.8672 161.572 64.0625L173.877 67.2852C174.561 67.4317 175.244 67.2852 175.733 66.7969L191.358 51.1719C192.627 58.3008 190.332 65.625 185.108 70.8496C176.367 79.5899 162.11 79.5899 153.369 70.8496C144.629 62.1094 144.629 47.8516 153.369 39.0625ZM145.996 67.3828C147.217 69.6778 148.731 71.7285 150.586 73.584C152.442 75.4395 154.492 76.9532 156.738 78.1739C150.586 85.4981 144.092 92.6758 137.403 99.6094L124.463 86.6699C131.494 80.0293 138.672 73.5352 145.996 67.3828ZM69.4826 54.0528L63.8673 45.166L70.9474 38.086L79.8341 43.6524L87.6955 54.9317L80.7619 61.8653L69.4826 54.0528ZM96.6798 159.229C91.4552 164.453 84.131 166.748 77.0021 165.479L92.6271 149.854C93.1154 149.365 93.3107 148.633 93.1154 147.998L89.8927 135.645C89.6974 134.961 89.1603 134.424 88.4767 134.229L76.172 131.006C75.4884 130.811 74.8048 131.006 74.3166 131.494L58.6916 147.119C57.422 139.99 59.7169 132.666 64.9416 127.441C73.5841 118.799 87.7443 118.506 96.6798 127.441C105.42 136.279 105.42 150.488 96.6798 159.229ZM104.004 130.957C102.783 128.662 101.27 126.611 99.4142 124.756C97.5588 122.9 95.508 121.387 93.2619 120.166C99.4142 112.842 105.86 105.713 112.549 98.7793L125.44 111.67C118.506 118.311 111.328 124.805 104.004 130.957ZM83.7404 64.4531L90.2345 57.959L141.211 108.936L134.717 115.43L83.7404 64.4531ZM186.914 162.5C181.445 167.236 173.047 166.797 167.725 161.475L132.422 126.172C132.031 125.781 131.787 125.244 131.787 124.707C131.787 124.17 131.983 123.633 132.422 123.242L148.975 106.689C149.365 106.299 149.903 106.055 150.44 106.055C150.977 106.055 151.514 106.25 151.904 106.689L187.549 142.334C193.311 147.998 192.92 157.227 186.914 162.5Z" fill="#333333"/>
<path d="M181.299 150.83L149.805 119.336C149.023 118.555 149.023 117.334 149.805 116.553C150.586 115.771 151.807 115.771 152.588 116.553L184.082 148.047C184.863 148.828 184.863 150.049 184.082 150.83C183.301 151.611 182.08 151.611 181.299 150.83Z" fill="#333333"/>
<path d="M173.584 157.959L142.383 126.758C141.602 125.977 141.602 124.756 142.383 123.975C143.164 123.193 144.385 123.193 145.166 123.975L176.367 155.176C177.148 155.957 177.148 157.178 176.367 157.959C175.586 158.74 174.316 158.74 173.584 157.959Z" fill="#333333"/>
</svg>
