<svg width="250" height="250" viewBox="0 0 250 250" fill="none" xmlns="http://www.w3.org/2000/svg">
<path d="M14.209 201.514V216.699C14.209 220.459 17.2363 223.535 21.0449 223.535H228.906C232.666 223.535 235.742 220.508 235.742 216.699V201.514H14.209Z" fill="#D3D9D9"/>
<path d="M212.549 223.535H228.955C232.715 223.535 235.742 220.508 235.742 216.748V201.562H219.385V216.748C219.385 220.459 216.357 223.535 212.549 223.535Z" fill="#A8B2B4"/>
<path d="M37.4023 223.535H21.0449C17.2852 223.535 14.2578 220.508 14.2578 216.748V201.562H30.6152V216.748C30.6152 220.459 33.6426 223.535 37.4023 223.535Z" fill="#EDEDED"/>
<path d="M235.742 59.9609V201.514H14.2578V59.9609C14.2578 56.2012 17.2852 53.125 21.0449 53.125H228.906C232.666 53.125 235.742 56.2012 235.742 59.9609Z" fill="#99CEFF"/>
<path d="M157.959 248.047H91.9922L103.125 223.535H146.875L157.959 248.047Z" fill="white"/>
<path d="M117.334 212.549C117.334 214.307 115.918 215.674 114.209 215.674C112.5 215.674 111.084 214.258 111.084 212.549C111.084 210.84 112.5 209.424 114.209 209.424C115.967 209.375 117.334 210.84 117.334 212.549Z" fill="#7C8B8E"/>
<path d="M128.125 212.549C128.125 214.307 126.709 215.674 125 215.674C123.291 215.674 121.875 214.258 121.875 212.549C121.875 210.84 123.291 209.424 125 209.424C126.758 209.375 128.125 210.84 128.125 212.549Z" fill="#7C8B8E"/>
<path d="M138.916 212.549C138.916 214.307 137.5 215.674 135.791 215.674C134.082 215.674 132.666 214.258 132.666 212.549C132.666 210.84 134.082 209.424 135.791 209.424C137.5 209.375 138.916 210.84 138.916 212.549Z" fill="#7C8B8E"/>
<path d="M215.088 28.0273H34.8633V201.563H215.088V28.0273Z" fill="white"/>
<path d="M215.088 28.0273H202.539V201.563H215.088V28.0273Z" fill="#EDEDED"/>
<path d="M215.137 6.83594V28.0273H34.8633V6.78711C34.8633 4.10156 37.0117 1.95312 39.6973 1.95312H210.254C212.939 1.95312 215.137 4.10156 215.137 6.83594Z" fill="#FFD297"/>
<path d="M52.3438 1.95312C49.6582 1.95312 47.5098 4.10156 47.5098 6.78711V27.9785H34.8633V6.78711C34.8633 4.10156 37.0117 1.95312 39.6973 1.95312H52.3438Z" fill="#FFC16F"/>
<path d="M215.137 6.83594V28.0273H202.539V6.83594C202.539 4.15039 200.391 1.95312 197.705 1.95312H210.303C212.939 1.95312 215.137 4.10156 215.137 6.83594Z" fill="#FFA024"/>
<path d="M52.5391 16.9434H49.3164C48.2422 16.9434 47.3633 16.0645 47.3633 14.9902C47.3633 13.916 48.2422 13.0371 49.3164 13.0371H52.5879C53.6621 13.0371 54.541 13.916 54.541 14.9902C54.541 16.0645 53.6621 16.9434 52.5391 16.9434Z" fill="#333333"/>
<path d="M68.4082 16.9434H65.1367C64.0625 16.9434 63.1836 16.0645 63.1836 14.9902C63.1836 13.916 64.0625 13.0371 65.1367 13.0371H68.4082C69.4824 13.0371 70.3613 13.916 70.3613 14.9902C70.3613 16.0645 69.4824 16.9434 68.4082 16.9434Z" fill="#333333"/>
<path d="M84.2285 16.9434H80.957C79.8828 16.9434 79.0039 16.0645 79.0039 14.9902C79.0039 13.916 79.8828 13.0371 80.957 13.0371H84.2285C85.3027 13.0371 86.1816 13.916 86.1816 14.9902C86.1816 16.0645 85.3027 16.9434 84.2285 16.9434Z" fill="#333333"/>
<path d="M200.684 16.9434H111.279C110.205 16.9434 109.326 16.0645 109.326 14.9902C109.326 13.916 110.205 13.0371 111.279 13.0371H200.684C201.758 13.0371 202.637 13.916 202.637 14.9902C202.637 16.0645 201.758 16.9434 200.684 16.9434Z" fill="#333333"/>
<path d="M228.906 51.1719H217.041V6.83594C217.041 3.07617 214.014 0 210.254 0H39.7461C35.9863 0 32.959 3.02734 32.959 6.78711V51.1719H21.0449C16.2109 51.1719 12.3047 55.0781 12.3047 59.9609V216.699C12.3047 221.533 16.2598 225.488 21.0938 225.488H100.098L90.7227 246.094H85.0586C83.9844 246.094 83.1055 246.973 83.1055 248.047C83.1055 249.121 83.9844 250 85.0586 250H164.844C165.918 250 166.797 249.121 166.797 248.047C166.797 246.973 165.918 246.094 164.844 246.094H159.18L149.902 225.488H228.906C233.74 225.488 237.695 221.533 237.695 216.699V59.9609C237.695 55.127 233.74 51.1719 228.906 51.1719ZM36.8164 6.78711C36.8164 5.17578 38.1348 3.90625 39.6973 3.90625H210.254C211.865 3.90625 213.135 5.22461 213.135 6.83594V26.0742H36.8164V6.78711ZM36.8164 29.9805H213.135V199.609H36.8164V29.9805ZM16.2109 59.9609C16.2109 57.2754 18.3594 55.0781 21.0449 55.0781H32.9102V199.561H16.2109V59.9609ZM154.932 246.094H95.0195L104.346 225.488H145.605L154.932 246.094ZM233.789 216.699C233.789 219.385 231.592 221.582 228.906 221.582H21.0449C18.3594 221.582 16.1621 219.385 16.1621 216.699V203.467H233.789V216.699ZM233.789 199.561H217.041V55.0781H228.906C231.543 55.0781 233.789 57.3242 233.789 59.9609V199.561Z" fill="#333333"/>
<path d="M82.1286 99.1699L96.9724 135.059L75.2439 144.043C73.6814 144.678 71.8747 143.945 71.24 142.383L58.6912 112.158C58.0564 110.596 58.7888 108.789 60.3513 108.154L82.1286 99.1699Z" fill="#FFD297"/>
<path d="M94.3843 128.76L97.021 135.059L75.2925 144.043C73.73 144.678 71.9233 143.945 71.2886 142.383L68.6519 136.084C69.2866 137.647 71.0933 138.379 72.6558 137.744L94.3843 128.76Z" fill="#FFA024"/>
<path d="M82.1286 99.2188L84.7654 105.518L63.0369 114.502C61.4744 115.137 60.7419 116.943 61.3767 118.506L58.74 112.207C58.1052 110.645 58.8376 108.838 60.4001 108.203L82.1286 99.2188Z" fill="#FFC16F"/>
<path d="M51.8064 119.727L61.0349 141.992C61.6696 143.555 63.4763 144.287 65.0388 143.652L70.8493 141.26L59.2771 113.33L53.4665 115.723C51.904 116.406 51.1228 118.164 51.8064 119.727Z" fill="#0085FF"/>
<path d="M59.2283 113.33L61.2302 118.115L55.4197 120.508C53.8572 121.143 53.1247 122.949 53.7595 124.512L51.7576 119.727C51.1228 118.164 51.8552 116.357 53.4177 115.723L59.2283 113.33Z" fill="#7BBFFF"/>
<path d="M68.7983 136.475L70.8003 141.26L64.9897 143.652C63.4272 144.287 61.6206 143.555 60.9858 141.992L58.9839 137.207C59.6187 138.77 61.4253 139.502 62.9878 138.867L68.7983 136.475Z" fill="#4BA4F7"/>
<path d="M140.185 96.1913C149.951 119.824 162.402 137.695 169.824 139.648L96.9722 135.107L82.1284 99.2187L130.419 44.4824C126.513 51.123 130.419 72.5585 140.185 96.1913Z" fill="#0085FF"/>
<path d="M169.824 139.648L96.9722 135.107L93.1147 125.83L158.3 129.443C162.695 135.156 166.699 138.818 169.824 139.648Z" fill="#4BA4F7"/>
<path d="M130.419 44.4824C128.808 47.2656 128.515 52.6855 129.492 59.8144L85.937 108.447L82.0796 99.1699L130.419 44.4824Z" fill="#7BBFFF"/>
<path d="M164.697 86.0351C175.781 112.793 179.297 136.719 172.509 139.551C165.722 142.334 151.269 122.949 140.185 96.1914C129.101 69.4336 125.586 45.5078 132.373 42.6757C139.16 39.8437 153.613 59.2773 164.697 86.0351Z" fill="white"/>
<path d="M164.697 86.0351C175.781 112.793 179.248 136.719 172.509 139.551C168.75 141.113 162.548 135.742 155.908 126.074C159.179 129.102 162.06 130.371 164.16 129.492C170.898 126.709 167.431 102.734 156.347 75.9765C151.464 64.1601 145.898 53.8085 140.625 46.1425C147.851 52.7343 157.08 67.6269 164.697 86.0351Z" fill="#EDEDED"/>
<path d="M158.74 88.4765C162.255 96.9726 158.203 106.689 149.707 110.205L147.167 111.279C144.775 106.641 142.382 101.514 140.185 96.1426C137.939 90.7715 136.035 85.498 134.423 80.5176L136.962 79.4433C145.507 75.9277 155.224 79.9805 158.74 88.4765Z" fill="#FDDD8D"/>
<path d="M158.74 88.4765C162.255 96.9726 158.203 106.689 149.707 110.205L147.167 111.279C145.996 109.033 144.824 106.641 143.701 104.199C151.904 100.537 155.761 91.0156 152.294 82.6171C151.904 81.6894 151.464 80.8593 150.976 80.0292C154.394 81.787 157.177 84.7167 158.74 88.4765Z" fill="#FDD267"/>
<path d="M100.244 150.977C101.758 154.639 98.9746 155.811 100.488 159.473C102.002 163.184 104.834 162.012 106.348 165.674C107.861 169.385 105.078 170.508 106.592 174.17C108.105 177.881 110.937 176.709 112.451 180.371L96.875 186.816C95.1172 187.549 93.0664 186.719 92.334 184.961L75.3418 144.043L94.1406 136.23C95.6543 139.941 92.8711 141.064 94.3848 144.775C95.8984 148.486 98.7305 147.314 100.244 150.977Z" fill="#D3D9D9"/>
<path d="M94.3848 144.824C94.4336 144.922 94.4336 144.971 94.4824 145.068L78.4668 151.709L75.293 144.092L94.1406 136.279C95.6543 139.941 92.8711 141.113 94.3848 144.824Z" fill="#E8EAEA"/>
<path d="M112.451 180.42L96.8262 186.865C95.0684 187.598 93.0176 186.768 92.2852 185.01L89.1113 177.393C89.8437 179.15 91.8945 179.98 93.6523 179.248L106.445 173.926C106.445 174.023 106.494 174.072 106.543 174.17C108.105 177.93 110.938 176.758 112.451 180.42Z" fill="#A8B2B4"/>
<path d="M166.504 85.2539C156.152 60.3027 140.869 37.0117 131.64 40.8203C130.127 41.4551 133.984 37.3535 80.9569 97.5097L59.6678 106.348C57.4217 107.275 56.1034 109.717 56.7381 112.207L52.6854 113.867C50.0975 114.941 48.9256 117.871 49.951 120.41L59.1795 142.676C60.2049 145.215 63.1346 146.484 65.7225 145.41L69.8241 143.701C70.7518 145.264 72.3631 146.191 74.1209 146.191L90.4784 185.693C91.6502 188.477 94.8241 189.746 97.5584 188.623L113.135 182.178C113.623 181.982 114.014 181.592 114.209 181.104C114.404 180.615 114.404 180.078 114.209 179.59C112.06 174.414 106.836 175.977 108.301 170.41C109.424 166.26 108.056 162.988 104.346 160.84C102.148 159.57 101.562 158.105 102.197 155.664C103.271 151.562 101.953 148.242 98.242 146.094C96.0936 144.824 95.4588 143.359 96.0936 140.918C96.3377 139.99 96.6307 138.818 96.4354 137.305L97.3143 136.963C171.289 141.699 170.752 142.285 173.242 141.211C182.471 137.5 176.855 110.254 166.504 85.2539ZM64.2577 141.846C63.6717 142.09 63.037 141.797 62.7928 141.26L53.5643 118.994C53.3202 118.457 53.6131 117.773 54.1502 117.529L58.1541 115.869L68.2127 140.186L64.2577 141.846ZM73.0956 141.699L60.5467 111.426C60.3026 110.84 60.5956 110.205 61.1327 109.961L81.0545 101.709L94.4334 133.984L74.5604 142.236H74.5116C73.9745 142.48 73.3397 142.236 73.0956 141.699ZM92.6268 139.014C92.578 139.307 92.4803 139.648 92.3827 140.039C91.3084 144.141 92.6268 147.412 96.3377 149.561C98.4862 150.83 99.1209 152.295 98.4862 154.736C97.412 158.838 98.7303 162.158 102.441 164.307C104.639 165.576 105.224 167.09 104.59 169.482C103.515 173.584 104.834 176.855 108.545 179.004C108.887 179.199 109.18 179.346 109.424 179.541L96.0936 185.059C95.3123 185.4 94.4334 185.01 94.0916 184.228L77.8807 145.068C78.369 144.922 92.8221 138.916 92.6268 139.014ZM98.3397 133.203L84.4237 99.5605L127.002 51.3183C126.611 64.5996 133.252 84.5215 138.428 96.9238C143.603 109.424 152.978 128.125 162.597 137.256L98.3397 133.203ZM136.865 81.6406L137.744 81.2988C145.215 78.2226 153.857 81.7871 156.933 89.2578C160.01 96.7285 156.445 105.371 148.974 108.447L148.096 108.789C145.947 104.59 143.896 100.098 141.992 95.4101C140.088 90.7715 138.33 86.1328 136.865 81.6406ZM171.777 137.695C165.967 140.137 152.93 117.871 149.951 112.256L150.537 112.012C160.01 108.105 164.551 97.168 160.596 87.6953C156.689 78.2226 145.752 73.6816 136.279 77.6367L135.693 77.8808C133.838 71.7773 127.295 46.875 133.154 44.4336C140.918 41.2109 157.959 74.8047 162.89 86.7187C174.853 115.674 176.123 135.937 171.777 137.695Z" fill="#333333"/>
<path d="M194.287 115.527L184.619 111.914C183.593 111.523 183.105 110.4 183.496 109.375C183.886 108.35 185.009 107.861 186.035 108.252L195.703 111.865C196.728 112.256 197.216 113.379 196.826 114.404C196.386 115.43 195.263 115.918 194.287 115.527Z" fill="#333333"/>
<path d="M188.134 95.5078C187.06 95.5078 186.23 94.6777 186.181 93.6035C186.132 92.5293 187.011 91.6504 188.085 91.6016L198.437 91.3574H198.486C199.56 91.3574 200.39 92.1875 200.439 93.2617C200.488 94.3359 199.609 95.2148 198.535 95.2637C198.291 95.3125 187.451 95.5566 188.134 95.5078Z" fill="#333333"/>
<path d="M182.959 78.4668C182.568 77.4902 183.007 76.3183 184.033 75.9277L193.554 71.9726C194.531 71.582 195.703 72.0215 196.093 73.0469C196.484 74.0234 196.045 75.1953 195.019 75.5859L185.498 79.541C184.521 79.9316 183.349 79.4433 182.959 78.4668Z" fill="#333333"/>
<path d="M174.512 65.4785C173.779 64.6972 173.779 63.4765 174.56 62.6953L182.031 55.5664C182.812 54.8339 184.033 54.8339 184.814 55.6152C185.547 56.3964 185.547 57.6172 184.766 58.3984L177.246 65.5273C176.465 66.2597 175.244 66.2597 174.512 65.4785Z" fill="#333333"/>
<path d="M161.425 56.2011C160.449 55.7617 160.009 54.5898 160.449 53.6133L164.697 44.1894C165.136 43.2129 166.308 42.7734 167.285 43.2129C168.261 43.6523 168.701 44.8242 168.261 45.8008L164.013 55.2246C163.574 56.25 162.402 56.6406 161.425 56.2011Z" fill="#333333"/>
</svg>
